<?xml version="1.0" encoding="UTF-8"?>
<!DOCTYPE svg PUBLIC "-//W3C//DTD SVG 1.1//EN" "http://www.w3.org/Graphics/SVG/1.1/DTD/svg11.dtd">
<!-- Creator: CorelDRAW 2019 (64-Bit) -->
<svg xmlns="http://www.w3.org/2000/svg" xml:space="preserve" width="11.9012in" height="13.6664in" version="1.1" style="shape-rendering:geometricPrecision; text-rendering:geometricPrecision; image-rendering:optimizeQuality; fill-rule:evenodd; clip-rule:evenodd"
viewBox="0 0 7844.78 9008.3"
 xmlns:xlink="http://www.w3.org/1999/xlink">
 <defs>
  <style type="text/css">
   <![CDATA[
    .str0 {stroke:#2A194D;stroke-width:4.58;stroke-miterlimit:2.61313}
    .fil0 {fill:#2A194D}
    .fil6 {fill:#F8E3B4}
    .fil4 {fill:white}
    .fil2 {fill:#F8E3B4;fill-rule:nonzero}
    .fil1 {fill:url(#id0)}
    .fil3 {fill:url(#id1);fill-rule:nonzero}
    .fil5 {fill:url(#id2);fill-rule:nonzero}
   ]]>
  </style>
  <linearGradient id="id0" gradientUnits="userSpaceOnUse" x1="2750.77" y1="8757.73" x2="5094.01" y2="250.57">
   <stop offset="0" style="stop-opacity:1; stop-color:#2A194D"/>
   <stop offset="0.541176" style="stop-opacity:1; stop-color:#311174"/>
   <stop offset="1" style="stop-opacity:1; stop-color:#39089C"/>
  </linearGradient>
  <linearGradient id="id1" gradientUnits="userSpaceOnUse" x1="4114.58" y1="1855.69" x2="5329.28" y2="6303.15">
   <stop offset="0" style="stop-opacity:1; stop-color:#6131BF"/>
   <stop offset="0.678431" style="stop-opacity:1; stop-color:#482293"/>
   <stop offset="1" style="stop-opacity:1; stop-color:#2F1367"/>
  </linearGradient>
  <linearGradient id="id2" gradientUnits="userSpaceOnUse" xlink:href="#id1" x1="728.42" y1="3224.07" x2="3019.55" y2="4934.77">
  </linearGradient>
 </defs>
 <g id="Layer_x0020_1">
  <metadata id="CorelCorpID_0Corel-Layer"/>
  <g id="_1987256796992">
   <polygon class="fil0 str0" points="2204.6,6375.27 1543.37,6375.27 1543.37,1783.57 2204.6,1783.57 "/>
   <path class="fil1" d="M53.66 7308.11l1934.46 0 0 1646.54 1934.41 0 0 -1069.31 1873.76 0 60.35 -0.66 0 -576.57 1934.48 0 0 -2522.4 0 -341.84 0 -3547.32c0,-243.95 -196.07,-447.58 -413.54,-463.07l-1520.95 0 -1934.11 0 -1107.43 0 -121.94 -0.89c-2.97,-207.89 -174.45,-378.93 -382.74,-378.93l-322.3 0 -558.69 0c-209.06,0 -380.75,170.15 -382.98,378.81l-569.87 0.42c-238.64,21.51 -422.92,222.02 -422.92,463.66l0 3547.32 0 341.84 0 2522.4z"/>
   <path class="fil2" d="M107.32 7254.45l1934.46 0 0 1646.54 1827.1 0 0 -1069.31c640.75,0 1295.13,-13.27 1934.11,0.14l0 -577.37 1934.48 0 0 -6357.9c0,-106.26 -42,-203.91 -107.55,-277.32 -66.88,-74.88 -157.95,-124.51 -253.4,-132.1 -1577.98,0 -3158.48,9.78 -4736.03,-1.47l-0.77 -52.44c-1.26,-89.41 -39.06,-171.13 -98.96,-230.45 -59.46,-58.83 -140.94,-95.45 -230.33,-95.45l-880.99 0c-89.91,0 -171.76,36.51 -231.25,95.36 -59.81,59.35 -97.32,140.82 -98.28,230.21l-0.56 53 -620.33 0.44c-104.58,9.97 -197.36,59.11 -264.12,132.29 -66.93,73.38 -107.57,171.1 -107.57,277.93l0 6357.9zm1827.15 107.32l-1934.46 0 0 -6465.22c0,-134.41 51.25,-257.5 135.65,-350.05 84.59,-92.74 202.81,-154.84 336.31,-166.85l524.83 -0.58c13.03,-98.14 58.88,-186.18 125.94,-252.47 79.19,-78.11 187.7,-126.6 306.69,-126.6l880.99 0c118.57,0 226.73,48.67 305.77,126.9 67.16,66.5 113.17,154.66 126.48,252.59l72.43 0.54c1467.78,-0.28 3128.55,-80.36 4566.26,0 124.66,8.87 242.64,72.12 328.22,167.92 82.42,92.29 135.21,215.03 135.21,348.6l0 6465.22 -1934.48 0 0 575.8c-644.1,6.79 -1289.77,1.43 -1934.11,1.43l0 1069.32 -2041.73 0 0 -1646.54z"/>
   <g>
    <path class="fil3" d="M2980.82 4364.94l0 1969.04 1122.37 0c199.4,0 385.64,-16.33 558.62,-48.93 172.53,-32.53 332.5,-81.36 479.69,-146.42 294.94,-130.39 540.06,-301.1 735.22,-511.98 195.28,-211.05 342.47,-451.1 441.45,-720.04 49.54,-134.65 86.42,-270.96 110.57,-408.79 24.22,-138.18 35.73,-277.6 34.54,-418.08 -2.41,-282.12 -52.09,-559.28 -148.97,-831.28 -48.23,-135.4 -109.09,-263.33 -182.52,-383.56 -73.48,-120.37 -159.73,-233.38 -258.6,-338.93 -98.92,-105.56 -209.83,-200.76 -332.73,-285.42 -123.16,-84.87 -258.6,-159.45 -406.19,-223.62 -147,-63.91 -306.38,-111.92 -478,-143.98 -171.69,-32.06 -356.09,-48.11 -553.07,-48.11l-1122.37 0 0 1855.81 1775.1 0 0 684.28 -1775.1 0zm-82.56 2010.32l0 -2092.88 1775.1 0 0 -519.17 -1775.1 0 0 -2020.93 1204.92 0c201.29,0 390.67,16.59 568.07,49.7 177.68,33.16 342.98,83.03 495.91,149.5 152.38,66.25 292.44,143.4 420.04,231.34 127.93,88.15 243.27,187.09 345.98,296.7 102.71,109.66 192.4,227.2 268.9,352.51 76.54,125.33 139.89,258.37 189.96,399 99.81,280.22 150.98,566.27 153.46,858.06 1.26,146.37 -10.6,290.7 -35.52,432.91 -24.97,142.6 -63.16,283.64 -114.41,422.97 -102.66,278.89 -255.54,528.08 -458.54,747.46 -203.16,219.54 -457.32,396.8 -762.32,531.64 -152.76,67.51 -318.74,118.2 -497.76,151.94 -178.62,33.65 -369.89,50.52 -573.78,50.52l-1204.92 0 0 -41.28z"/>
    <g>
     <polygon class="fil4" points="2204.6,6375.27 2204.6,1783.57 1543.37,1783.57 1543.37,6375.27 "/>
     <path class="fil5" d="M2163.32 6333.99l0 -4509.13 -578.67 0 0 4509.13 578.67 0zm82.56 -4550.41l0 4632.97 -743.79 0 0 -4674.25 743.79 0 0 41.28z"/>
     <path class="fil4" d="M2939.54 4323.66l0 2051.6 982.99 0 180.65 0c403.29,0 754.93,-66.32 1054.92,-198.91 299.99,-132.63 549.59,-306.57 748.77,-521.81 199.16,-215.24 349.16,-459.82 449.99,-733.75 100.79,-273.95 150,-554.41 147.52,-841.37 -2.46,-286.99 -52.86,-568.54 -151.21,-844.67 -98.35,-276.1 -248.38,-521.76 -450,-737 -201.64,-215.24 -452.45,-388.08 -752.47,-518.53 -299.99,-130.44 -649.16,-195.65 -1047.53,-195.65l-1163.64 0 0 1938.37 1775.1 0 0 601.72 -1775.1 0z"/>
     <path class="fil6" d="M6100.59 1762.5l102.44 21.16c33.29,7.76 65.94,15.81 97.93,25.63 67.13,20.6 122.77,50.28 160.71,88.39 64,64.3 92.13,162.71 113.43,257.75l21.58 103.07c20.76,-110.49 43.27,-245.22 112.47,-335.95 19.93,-26.13 18.22,-20.79 37.36,-39.37 4.91,-4.76 4.1,-3.51 8.75,-6.92l27.24 -19.7c6.88,-4.01 12.86,-7.54 20.2,-11.24 70.38,-35.5 159.64,-58.35 237.88,-72.45 14.39,-2.59 38.32,-6.21 51.57,-10.17 -119.48,-28.64 -270.28,-44 -360.79,-134.73 -64.16,-64.32 -93.12,-163.46 -113.91,-257.44 -7.39,-33.44 -12.59,-71.41 -21.17,-104.38 -3.53,33.03 -37.32,171.04 -46.26,199.34 -19.82,62.68 -35.05,96.3 -73.03,144.73 -6.49,8.28 -22.36,25.53 -30.04,30.94 -22.84,16.09 -20.36,19.02 -56.17,37.92 -59.21,31.25 -120.78,46.9 -185.42,61.82 -34.32,7.92 -70.77,12.99 -104.77,21.61z"/>
    </g>
   </g>
  </g>
 </g>
</svg>
