<?xml version="1.0" encoding="UTF-8"?>
<!DOCTYPE svg PUBLIC "-//W3C//DTD SVG 1.1//EN" "http://www.w3.org/Graphics/SVG/1.1/DTD/svg11.dtd">
<!-- Creator: CorelDRAW 2019 (64-Bit) -->
<svg xmlns="http://www.w3.org/2000/svg" xml:space="preserve" width="136.761in" height="27.767in" version="1.1" style="shape-rendering:geometricPrecision; text-rendering:geometricPrecision; image-rendering:optimizeQuality; fill-rule:evenodd; clip-rule:evenodd"
viewBox="0 0 136756.87 27766.22"
 xmlns:xlink="http://www.w3.org/1999/xlink">
 <defs>
  <style type="text/css">
   <![CDATA[
    .str0 {stroke:#2A194D;stroke-width:6.94;stroke-miterlimit:2.61313}
    .fil2 {fill:#2A194D}
    .fil7 {fill:#F8E3B4}
    .fil5 {fill:white}
    .fil1 {fill:#F8E3B4;fill-rule:nonzero}
    .fil0 {fill:white;fill-rule:nonzero}
    .fil3 {fill:url(#id0)}
    .fil6 {fill:url(#id1);fill-rule:nonzero}
    .fil4 {fill:url(#id2);fill-rule:nonzero}
   ]]>
  </style>
  <linearGradient id="id0" gradientUnits="userSpaceOnUse" x1="8478.67" y1="26993.88" x2="15701.23" y2="772.34">
   <stop offset="0" style="stop-opacity:1; stop-color:#2A194D"/>
   <stop offset="0.541176" style="stop-opacity:1; stop-color:#311174"/>
   <stop offset="1" style="stop-opacity:1; stop-color:#39089C"/>
  </linearGradient>
  <linearGradient id="id1" gradientUnits="userSpaceOnUse" x1="2245.19" y1="9937.52" x2="9307.12" y2="15210.4">
   <stop offset="0" style="stop-opacity:1; stop-color:#6131BF"/>
   <stop offset="0.678431" style="stop-opacity:1; stop-color:#482293"/>
   <stop offset="1" style="stop-opacity:1; stop-color:#2F1367"/>
  </linearGradient>
  <linearGradient id="id2" gradientUnits="userSpaceOnUse" xlink:href="#id1" x1="12682.33" y1="5719.79" x2="16426.4" y2="19428.13">
  </linearGradient>
 </defs>
 <g id="Layer_x0020_1">
  <metadata id="CorelCorpID_0Corel-Layer"/>
  <g id="_1986862963152">
   <path class="fil0" d="M28528.58 16240.93c-79.28,0 -144.39,-25.48 -195.36,-76.45 -50.96,-50.96 -76.45,-116.08 -76.45,-195.36l0 -11925.33c0,-79.28 25.48,-144.4 76.45,-195.36 50.96,-50.96 116.08,-76.45 195.36,-76.45l4178.96 0c1189.14,0 2194.24,300.11 3015.31,900.34 821.07,600.23 1435.46,1376 1843.16,2327.31 407.7,951.31 611.56,1953.58 611.56,3006.82 0,1064.56 -203.85,2072.49 -611.56,3023.8 -407.7,951.31 -1027.75,1724.25 -1860.15,2318.82 -832.39,594.57 -1843.16,891.85 -3032.29,891.85l-4144.98 0zm4144.98 -917.33c1189.14,0 2112.13,-464.33 2768.99,-1392.99 656.86,-928.66 985.28,-2236.71 985.28,-3924.15 0,-1687.44 -328.43,-2995.49 -985.28,-3924.15 -656.86,-928.66 -1579.85,-1392.99 -2768.99,-1392.99l-2650.07 0 0 10634.27 2650.07 0z"/>
   <path id="1" class="fil0" d="M40250.05 16240.93c-79.28,0 -144.39,-25.48 -195.36,-76.45 -50.96,-50.96 -76.45,-116.08 -76.45,-195.36l0 -11925.33c0,-79.28 25.48,-144.4 76.45,-195.36 50.96,-50.96 116.08,-76.45 195.36,-76.45l8374.91 0c113.25,0 192.53,62.29 237.83,186.86l152.89 577.58c11.32,22.65 16.99,56.63 16.99,101.93 0,90.6 -31.14,164.22 -93.43,220.84 -62.29,56.62 -144.39,79.28 -246.32,67.95 -1755.39,-158.55 -4071.37,-237.83 -6947.95,-237.83l0 4858.47c951.31,0 1724.25,-11.32 2318.81,-33.98 594.57,-22.65 1214.62,-67.95 1860.15,-135.9l33.98 0c79.28,0 147.23,28.31 203.85,84.94 56.62,56.63 84.94,124.58 84.94,203.85l0 679.51c0,90.6 -22.65,164.21 -67.95,220.84 -45.3,56.63 -107.59,79.28 -186.86,67.95 -668.18,-67.95 -1302.38,-113.25 -1902.61,-135.9 -600.23,-22.65 -1381.66,-33.98 -2344.29,-33.98l0 4858.47c2876.58,0 5192.56,-79.28 6947.95,-237.83l50.96 0c101.93,0 184.03,39.64 246.32,118.91 62.29,79.27 76.45,169.87 42.47,271.8l-169.88 577.58c-45.3,124.58 -124.58,186.86 -237.83,186.86l-8374.91 0z"/>
   <path id="2" class="fil0" d="M51342.99 16240.93c-79.28,0 -144.39,-25.48 -195.36,-76.45 -50.96,-50.96 -76.45,-116.08 -76.45,-195.36l0 -11925.33c0,-79.28 25.48,-144.4 76.45,-195.36 50.96,-50.96 116.08,-76.45 195.36,-76.45l1223.11 0c79.27,0 144.39,25.48 195.36,76.45 50.96,50.96 76.45,116.08 76.45,195.36l0 11279.8c2876.58,0 5192.56,-79.28 6947.95,-237.83l50.96 0c101.93,0 184.03,39.64 246.32,118.91 62.29,79.27 76.45,169.87 42.47,271.8l-169.88 577.58c-45.3,124.58 -124.58,186.86 -237.83,186.86l-8374.91 0z"/>
   <path id="3" class="fil0" d="M61875.33 16240.93c-79.28,0 -144.39,-25.48 -195.36,-76.45 -50.96,-50.96 -76.45,-116.08 -76.45,-195.36l0 -11925.33c0,-79.28 25.48,-144.4 76.45,-195.36 50.96,-50.96 116.08,-76.45 195.36,-76.45l8374.91 0c113.25,0 192.53,62.29 237.83,186.86l152.89 577.58c11.32,22.65 16.99,56.63 16.99,101.93 0,90.6 -31.14,164.22 -93.43,220.84 -62.29,56.62 -144.39,79.28 -246.32,67.95 -1755.39,-158.55 -4071.37,-237.83 -6947.95,-237.83l0 4858.47c951.31,0 1724.25,-11.32 2318.81,-33.98 594.57,-22.65 1214.62,-67.95 1860.15,-135.9l33.98 0c79.28,0 147.23,28.31 203.85,84.94 56.62,56.63 84.94,124.58 84.94,203.85l0 679.51c0,90.6 -22.65,164.21 -67.95,220.84 -45.3,56.63 -107.59,79.28 -186.86,67.95 -668.18,-67.95 -1302.38,-113.25 -1902.61,-135.9 -600.23,-22.65 -1381.66,-33.98 -2344.29,-33.98l0 4858.47c2876.58,0 5192.56,-79.28 6947.95,-237.83l50.96 0c101.93,0 184.03,39.64 246.32,118.91 62.29,79.27 76.45,169.87 42.47,271.8l-169.88 577.58c-45.3,124.58 -124.58,186.86 -237.83,186.86l-8374.91 0z"/>
   <path id="4" class="fil0" d="M76501.69 16240.93c-56.63,0 -107.59,-16.99 -152.89,-50.96 -45.3,-33.98 -73.61,-73.61 -84.94,-118.91l-4450.76 -11874.36c-11.33,-22.65 -16.99,-62.29 -16.99,-118.91 0,-90.6 31.14,-164.22 93.43,-220.84 62.29,-56.62 138.73,-84.94 229.33,-84.94l1291.06 0c56.63,0 107.59,16.99 152.89,50.96 45.3,33.98 73.61,73.61 84.94,118.91l3992.1 10719.2 526.61 -1426.96c1189.14,-3205 1970.57,-5336.95 2344.29,-6395.85 373.73,-1058.89 673.85,-2018.7 900.35,-2879.41 33.98,-124.58 118.91,-186.86 254.82,-186.86l696.49 0c101.93,0 184.03,28.31 246.32,84.94 62.29,56.62 93.43,130.24 93.43,220.84 0,33.98 -11.33,84.94 -33.98,152.89 -317.11,668.18 -668.18,1500.58 -1053.23,2497.18 -385.06,996.61 -962.63,2519.83 -1732.74,4569.68 -169.88,407.7 -356.74,894.68 -560.59,1460.94 -113.25,305.77 -220.84,588.9 -322.76,849.38l-118.91 339.75c-385.06,1041.91 -645.53,1749.73 -781.43,2123.45 -56.62,113.25 -135.9,169.88 -237.82,169.88l-1359.01 0z"/>
   <path id="5" class="fil0" d="M84536.85 16240.93c-79.28,0 -144.39,-25.48 -195.36,-76.45 -50.96,-50.96 -76.45,-116.08 -76.45,-195.36l0 -11925.33c0,-79.28 25.48,-144.4 76.45,-195.36 50.96,-50.96 116.08,-76.45 195.36,-76.45l8374.91 0c113.25,0 192.53,62.29 237.83,186.86l152.89 577.58c11.32,22.65 16.99,56.63 16.99,101.93 0,90.6 -31.14,164.22 -93.43,220.84 -62.29,56.62 -144.39,79.28 -246.32,67.95 -1755.39,-158.55 -4071.37,-237.83 -6947.95,-237.83l0 4858.47c951.31,0 1724.25,-11.32 2318.81,-33.98 594.57,-22.65 1214.62,-67.95 1860.15,-135.9l33.98 0c79.28,0 147.23,28.31 203.85,84.94 56.62,56.63 84.94,124.58 84.94,203.85l0 679.51c0,90.6 -22.65,164.21 -67.95,220.84 -45.3,56.63 -107.59,79.28 -186.86,67.95 -668.18,-67.95 -1302.38,-113.25 -1902.61,-135.9 -600.23,-22.65 -1381.66,-33.98 -2344.29,-33.98l0 4858.47c2876.58,0 5192.56,-79.28 6947.95,-237.83l50.96 0c101.93,0 184.03,39.64 246.32,118.91 62.29,79.27 76.45,169.87 42.47,271.8l-169.88 577.58c-45.3,124.58 -124.58,186.86 -237.83,186.86l-8374.91 0z"/>
   <path id="6" class="fil0" d="M104786.12 4077.77c-79.27,1064.56 -130.24,2174.42 -152.89,3329.58 -22.65,1155.16 -33.98,2735.01 -33.98,4739.55l0 3805.23c0,79.28 -25.48,147.23 -76.44,203.85 -50.96,56.62 -116.08,84.94 -195.36,84.94l-390.72 0c-79.28,0 -141.56,-33.98 -186.86,-101.93l-7474.57 -10532.34 0 3193.68c0,1710.09 14.16,3086.09 42.47,4128 28.31,1041.91 76.44,2044.18 144.39,3006.81 0,90.6 -28.31,164.22 -84.94,220.84 -56.62,56.62 -124.58,84.94 -203.85,84.94l-713.48 0c-79.28,0 -147.23,-28.31 -203.85,-84.94 -56.62,-56.62 -84.94,-130.24 -84.94,-220.84 79.28,-1064.56 130.24,-2174.42 152.89,-3329.58 22.65,-1155.16 33.98,-2735.01 33.98,-4739.55l0 -3805.23c0,-79.28 25.48,-147.23 76.45,-203.85 50.96,-56.62 116.08,-84.94 195.36,-84.94l1376 0c79.27,0 141.56,33.98 186.86,101.93l6489.28 9139.35 0 -1817.68c0,-1698.77 -14.16,-3069.1 -42.47,-4111.01 -28.31,-1041.91 -76.45,-2044.18 -144.4,-3006.81 0,-90.6 28.31,-164.22 84.94,-220.84 56.63,-56.62 124.58,-84.94 203.85,-84.94l713.48 0c79.27,0 147.22,28.31 203.85,84.94 56.63,56.62 84.94,130.24 84.94,220.84z"/>
   <path id="7" class="fil0" d="M110239.16 16240.93c-79.27,0 -144.39,-25.48 -195.36,-76.45 -50.96,-50.96 -76.45,-116.08 -76.45,-195.36l0 -11279.8c-1325.03,0 -2429.23,79.28 -3312.59,237.83 -135.9,22.65 -243.49,-8.49 -322.77,-93.43 -79.27,-84.94 -101.92,-195.36 -67.95,-331.26l152.89 -543.6c45.3,-124.58 124.58,-186.86 237.83,-186.86l8391.9 0c113.25,0 192.53,62.29 237.83,186.86l152.89 543.6c33.98,124.58 11.33,229.34 -67.95,314.27 -79.28,84.94 -186.86,121.74 -322.77,110.42 -883.36,-158.55 -1987.55,-237.83 -3312.59,-237.83l0 11279.8c0,79.28 -25.48,144.39 -76.44,195.36 -50.96,50.96 -116.08,76.45 -195.36,76.45l-1223.11 0z"/>
   <path id="8" class="fil0" d="M126241.52 3771.99c90.6,0 164.21,19.82 220.84,59.46 56.63,39.64 79.28,87.77 67.95,144.39 -124.58,1664.79 -186.86,3725.96 -186.86,6183.5l0 1172.15 0 50.96 0 67.95c-11.32,1596.84 -407.7,2836.93 -1189.14,3720.29 -781.43,883.36 -1862.98,1325.04 -3244.64,1325.04 -962.63,0 -1803.52,-203.85 -2522.66,-611.56 -719.14,-407.7 -1276.9,-993.78 -1673.28,-1758.22 -396.38,-764.44 -600.23,-1661.96 -611.56,-2692.54l0 -7389.63c0,-79.28 25.48,-144.4 76.45,-195.36 50.96,-50.96 116.08,-76.45 195.36,-76.45l1223.11 0c79.27,0 144.39,25.48 195.36,76.45 50.96,50.96 76.45,116.08 76.45,195.36l0 7287.7c0,1494.91 249.15,2576.46 747.45,3244.64 498.3,668.18 1308.05,1002.27 2429.23,1002.27 1064.56,0 1894.12,-373.73 2488.69,-1121.18 594.57,-747.45 891.85,-1789.37 891.85,-3125.73l0 -1138.17c0,-2446.22 -62.29,-4484.74 -186.86,-6115.55 0,-90.6 28.31,-164.22 84.94,-220.84 56.63,-56.62 124.58,-84.94 203.85,-84.94l713.48 0z"/>
   <path id="9" class="fil0" d="M132543.94 16512.73c-951.31,0 -1809.18,-220.84 -2573.63,-662.52 -764.44,-441.68 -1316.54,-1030.58 -1656.3,-1766.71 -11.32,-22.65 -16.99,-56.63 -16.99,-101.93 0,-135.9 56.63,-220.84 169.88,-254.82l696.5 -288.79c67.95,-22.65 113.25,-33.98 135.9,-33.98 67.95,0 130.24,22.65 186.86,67.95 56.63,45.3 90.6,107.59 101.93,186.86 147.23,600.23 489.81,1078.72 1027.75,1435.45 537.94,356.74 1186.3,535.11 1945.09,535.11 781.43,0 1404.31,-195.36 1868.64,-586.07 464.33,-390.71 696.5,-914.5 696.5,-1571.36 0,-577.58 -135.9,-1044.74 -407.7,-1401.48 -271.8,-356.74 -614.39,-634.21 -1027.75,-832.4 -413.37,-198.19 -988.11,-421.86 -1724.25,-671.01 -758.78,-260.48 -1378.83,-509.63 -1860.15,-747.45 -481.32,-237.83 -889.02,-580.41 -1223.11,-1027.75 -334.09,-447.34 -501.14,-1022.09 -501.14,-1724.25 0,-679.5 178.37,-1288.23 535.11,-1826.17 356.74,-537.94 852.22,-959.8 1486.42,-1265.58 634.2,-305.78 1353.35,-458.67 2157.43,-458.67 939.98,0 1775.21,218.01 2505.68,654.02 730.47,436.02 1254.26,1022.09 1571.36,1758.22 11.33,22.65 16.99,50.96 16.99,84.94 0,113.25 -56.62,198.19 -169.88,254.82l-696.49 288.79c-45.3,22.65 -84.94,33.98 -118.91,33.98 -67.95,0 -127.41,-25.48 -178.37,-76.45 -50.96,-50.96 -87.77,-116.08 -110.42,-195.36 -135.9,-588.9 -458.66,-1058.89 -968.3,-1409.98 -509.63,-351.08 -1126.85,-526.61 -1851.65,-526.61 -770.11,0 -1392.99,198.19 -1868.64,594.57 -475.65,396.38 -713.48,917.33 -713.48,1562.86 0,453 118.91,823.9 356.74,1112.69 237.82,288.79 546.43,523.79 925.82,704.99 379.39,181.2 903.18,385.06 1571.36,611.56 826.73,283.13 1500.58,560.59 2021.53,832.39 520.95,271.8 968.3,668.18 1342.02,1189.14 373.73,520.95 560.59,1189.14 560.59,2004.54 0,668.18 -181.2,1271.24 -543.6,1809.18 -362.4,537.95 -863.54,956.97 -1503.41,1257.09 -639.87,300.12 -1361.84,450.18 -2165.92,450.18z"/>
   <path class="fil1" d="M28645.03 19509.14l392.88 0 0 2568.81c327.4,0 623.31,-4.41 887.75,-13.22 264.44,-8.81 517.54,-25.81 759.31,-51l-75.55 268.21 -1964.39 0 0 -2772.81z"/>
   <path id="1" class="fil1" d="M35137.37 19509.14c-30.22,375.25 -45.33,847.46 -45.33,1416.62l0 264.44 0 37.78c-5.04,350.06 -93.81,622.68 -266.33,817.86 -172.51,195.18 -412.39,292.77 -719.64,292.77 -214.07,0 -401.06,-45.33 -560.98,-136 -159.92,-90.67 -283.95,-220.99 -372.1,-390.99 -88.15,-170 -133.48,-369.58 -136,-598.76l0 -1703.73 392.88 0 0 1681.06c0,332.44 55.4,572.95 166.22,721.53 110.81,148.59 290.88,222.88 540.2,222.88 236.74,0 421.21,-83.11 553.43,-249.33 132.22,-166.22 198.33,-397.91 198.33,-695.09l0 -264.44c0,-569.17 -15.11,-1041.38 -45.33,-1416.62l294.66 0z"/>
   <path id="2" class="fil1" d="M37538.5 22281.94c261.92,-322.36 585.54,-758.05 970.86,-1307.07l-902.86 -1465.73 457.1 0 695.09 1118.19c198.96,-279.55 355.73,-505.58 470.32,-678.09 114.59,-172.51 204.62,-319.21 270.1,-440.1l351.32 0c-261.92,322.36 -585.54,758.05 -970.86,1307.07l902.86 1465.73 -457.1 0 -695.09 -1118.19c-198.96,279.55 -355.73,505.58 -470.32,678.09 -114.59,172.51 -204.62,319.22 -270.1,440.1l-351.32 0z"/>
   <path id="3" class="fil1" d="M44397.27 19509.14c-30.22,375.25 -45.33,847.46 -45.33,1416.62l0 264.44 0 37.78c-5.04,350.06 -93.81,622.68 -266.33,817.86 -172.51,195.18 -412.39,292.77 -719.64,292.77 -214.07,0 -401.06,-45.33 -560.98,-136 -159.92,-90.67 -283.95,-220.99 -372.1,-390.99 -88.15,-170 -133.48,-369.58 -136,-598.76l0 -1703.73 392.88 0 0 1681.06c0,332.44 55.4,572.95 166.22,721.53 110.81,148.59 290.88,222.88 540.2,222.88 236.74,0 421.21,-83.11 553.43,-249.33 132.22,-166.22 198.33,-397.91 198.33,-695.09l0 -264.44c0,-569.17 -15.11,-1041.38 -45.33,-1416.62l294.66 0z"/>
   <path id="4" class="fil1" d="M47028.84 19509.14l1091.74 0c191.4,0 359.51,34.63 504.32,103.89 144.81,69.26 257.51,166.22 338.1,290.88 80.59,124.66 120.89,268.84 120.89,432.54 0,193.92 -56.04,360.14 -168.11,498.65 -112.07,138.52 -266.33,234.21 -462.77,287.1l687.54 1159.74 -460.87 0 -661.1 -1118.19 -596.87 0 0 1118.19 -392.88 0 0 -2772.81zm1084.19 1450.62c191.4,0 336.21,-52.26 434.43,-156.77 98.22,-104.52 147.33,-260.03 147.33,-466.54 0,-206.51 -49.11,-362.03 -147.33,-466.54 -98.22,-104.52 -243.03,-156.78 -434.43,-156.78l-691.31 0 0 1246.63 691.31 0z"/>
   <path id="5" class="fil1" d="M52406.77 21216.64l-1065.3 -1707.51 457.1 0 883.97 1412.85c261.92,-413.03 457.1,-724.05 585.54,-933.08 128.44,-209.03 217.84,-368.95 268.21,-479.77l351.32 0c-93.18,108.29 -222.25,287.1 -387.21,536.43 -164.96,249.32 -398.54,614.5 -700.76,1095.52l0 1140.85 -392.88 0 0 -1065.3z"/>
   <path id="6" class="fil1" d="M58638.45 22338.61c-246.81,0 -470.32,-62.33 -670.54,-186.99 -200.21,-124.67 -356.99,-297.18 -470.32,-517.54 -113.33,-220.36 -170,-466.54 -170,-738.53 0,-269.48 57.3,-514.39 171.88,-734.76 114.59,-220.36 271.36,-392.87 470.32,-517.54 198.95,-124.66 421.84,-186.99 668.65,-186.99 246.81,0 469.69,62.33 668.65,186.99 198.96,124.67 355.73,297.18 470.32,517.54 114.59,220.36 171.88,465.28 171.88,734.76 0,271.99 -56.67,518.17 -170,738.53 -113.33,220.36 -270.11,392.87 -470.32,517.54 -200.21,124.66 -423.73,186.99 -670.54,186.99zm0 -196.44c188.88,0 352.58,-49.74 491.1,-149.22 138.52,-99.48 244.92,-243.03 319.22,-430.65 74.29,-187.62 111.44,-409.88 111.44,-666.76 0,-254.36 -37.14,-475.36 -111.44,-662.98 -74.3,-187.62 -180.7,-331.18 -319.22,-430.65 -138.52,-99.48 -302.21,-149.22 -491.1,-149.22 -188.88,0 -352.58,49.74 -491.1,149.22 -138.52,99.48 -244.92,243.03 -319.22,430.65 -74.29,187.62 -111.44,408.62 -111.44,662.98 0,256.88 37.14,479.13 111.44,666.76 74.3,187.62 180.7,331.18 319.22,430.65 138.52,99.48 302.21,149.22 491.1,149.22z"/>
   <path id="7" class="fil1" d="M64575.47 19509.14c-17.63,251.84 -29.59,511.25 -35.89,778.2 -6.3,266.96 -9.44,639.69 -9.44,1118.19l0 876.42 -173.77 0 -1677.28 -2361.04 0 596.87c0,435.69 3.15,779.46 9.44,1031.31 6.3,251.84 18.26,496.13 35.89,732.86l-294.66 0c17.63,-251.84 29.59,-511.24 35.89,-778.2 6.3,-266.95 9.44,-639.69 9.44,-1118.19l0 -876.42 392.88 0 1458.18 2058.83 0 -415.55c0,-377.76 -3.15,-687.54 -9.44,-929.3 -6.3,-241.77 -18.26,-479.77 -35.89,-713.98l294.66 0z"/>
   <path id="8" class="fil1" d="M70980.93 19509.14l0 2772.81 -392.88 0 0 -2175.93 -853.75 2175.93 -373.99 0 -891.53 -2141.93 0 438.21c0,395.4 3.15,718.39 9.44,968.97 6.3,250.58 18.26,495.51 35.89,734.75l-294.66 0c17.63,-251.84 29.59,-511.24 35.89,-778.2 6.3,-266.95 9.44,-639.69 9.44,-1118.19l0 -876.42 370.21 0 1012.42 2432.82 963.31 -2432.82 370.21 0z"/>
   <path id="9" class="fil1" d="M73695.6 19509.14l1964.39 0 75.55 268.21c-241.77,-25.18 -494.88,-42.18 -759.31,-51 -264.44,-8.81 -560.35,-13.22 -887.75,-13.22l0 1080.41c229.18,0 413.02,-3.15 551.54,-9.44 138.51,-6.3 288.36,-18.26 449.54,-35.89l0 294.66c-161.18,-17.63 -311.03,-29.59 -449.54,-35.88 -138.52,-6.3 -322.36,-9.44 -551.54,-9.44l0 1080.41c327.4,0 623.31,-4.41 887.75,-13.22 264.44,-8.81 517.54,-25.81 759.31,-51l-75.55 268.21 -1964.39 0 0 -2772.81z"/>
   <path id="10" class="fil1" d="M81003.91 19509.14l0 2772.81 -392.88 0 0 -2175.93 -853.75 2175.93 -373.99 0 -891.53 -2141.93 0 438.21c0,395.4 3.15,718.39 9.44,968.97 6.3,250.58 18.26,495.51 35.89,734.75l-294.66 0c17.63,-251.84 29.59,-511.24 35.89,-778.2 6.3,-266.95 9.44,-639.69 9.44,-1118.19l0 -876.42 370.21 0 1012.42 2432.82 963.31 -2432.82 370.21 0z"/>
   <path id="11" class="fil1" d="M84840.55 22338.61c-246.81,0 -470.32,-62.33 -670.54,-186.99 -200.21,-124.67 -356.99,-297.18 -470.32,-517.54 -113.33,-220.36 -170,-466.54 -170,-738.53 0,-269.48 57.3,-514.39 171.88,-734.76 114.59,-220.36 271.36,-392.87 470.32,-517.54 198.95,-124.66 421.84,-186.99 668.65,-186.99 246.81,0 469.69,62.33 668.65,186.99 198.96,124.67 355.73,297.18 470.32,517.54 114.59,220.36 171.88,465.28 171.88,734.76 0,271.99 -56.67,518.17 -170,738.53 -113.33,220.36 -270.11,392.87 -470.32,517.54 -200.21,124.66 -423.73,186.99 -670.54,186.99zm0 -196.44c188.88,0 352.58,-49.74 491.1,-149.22 138.52,-99.48 244.92,-243.03 319.22,-430.65 74.29,-187.62 111.44,-409.88 111.44,-666.76 0,-254.36 -37.14,-475.36 -111.44,-662.98 -74.3,-187.62 -180.7,-331.18 -319.22,-430.65 -138.52,-99.48 -302.21,-149.22 -491.1,-149.22 -188.88,0 -352.58,49.74 -491.1,149.22 -138.52,99.48 -244.92,243.03 -319.22,430.65 -74.29,187.62 -111.44,408.62 -111.44,662.98 0,256.88 37.14,479.13 111.44,666.76 74.3,187.62 180.7,331.18 319.22,430.65 138.52,99.48 302.21,149.22 491.1,149.22z"/>
   <path id="12" class="fil1" d="M88677.19 19509.14l1091.74 0c191.4,0 359.51,34.63 504.32,103.89 144.81,69.26 257.51,166.22 338.1,290.88 80.59,124.66 120.89,268.84 120.89,432.54 0,193.92 -56.04,360.14 -168.11,498.65 -112.07,138.52 -266.33,234.21 -462.77,287.1l687.54 1159.74 -460.87 0 -661.1 -1118.19 -596.87 0 0 1118.19 -392.88 0 0 -2772.81zm1084.19 1450.62c191.4,0 336.21,-52.26 434.43,-156.77 98.22,-104.52 147.33,-260.03 147.33,-466.54 0,-206.51 -49.11,-362.03 -147.33,-466.54 -98.22,-104.52 -243.03,-156.78 -434.43,-156.78l-691.31 0 0 1246.63 691.31 0z"/>
   <path id="13" class="fil1" d="M94055.12 21216.64l-1065.3 -1707.51 457.1 0 883.97 1412.85c261.92,-413.03 457.1,-724.05 585.54,-933.08 128.44,-209.03 217.84,-368.95 268.21,-479.77l351.32 0c-93.18,108.29 -222.25,287.1 -387.21,536.43 -164.96,249.32 -398.54,614.5 -700.76,1095.52l0 1140.85 -392.88 0 0 -1065.3z"/>
   <polygon class="fil2 str0" points="6795.21,19650.43 4757.1,19650.43 4757.1,5497.49 6795.21,5497.49 "/>
   <path class="fil3" d="M165.39 22525.72l5962.57 0 0 5075.11 5962.42 0 0 -3295.94 5775.47 0 186.01 -2.02 0 -1777.15 5962.64 0 0 -7774.77 0 -1053.64 0 -10933.89c0,-751.93 -604.36,-1379.58 -1274.64,-1427.33l-4688 0 -5961.48 0 -3413.44 0 -375.86 -2.74c-9.16,-640.78 -537.71,-1167.96 -1179.72,-1167.96l-993.41 0 -1722.05 0c-644.39,0 -1173.59,524.44 -1180.44,1167.6l-1756.52 1.3c-735.56,66.29 -1303.56,684.35 -1303.56,1429.14l0 10933.89 0 1053.64 0 7774.77z"/>
   <path class="fil1" d="M330.78 22360.34l5962.57 0 0 5075.11 5631.65 0 0 -3295.94c1974.99,0 3991.97,-40.9 5961.49,0.43l0 -1779.6 5962.64 0 0 -19596.91c0,-327.53 -129.47,-628.52 -331.5,-854.78 -206.14,-230.81 -486.86,-383.79 -781.07,-407.16 -4863.77,0 -9735.34,30.15 -14597.82,-4.54l-2.38 -161.64c-3.9,-275.6 -120.38,-527.47 -305.03,-710.31 -183.28,-181.33 -434.42,-294.21 -709.95,-294.21l-2715.46 0c-277.11,0 -529.42,112.52 -712.77,293.92 -184.36,182.92 -299.98,434.06 -302.94,709.59l-1.73 163.37 -1912.03 1.37c-322.34,30.73 -608.32,182.2 -814.1,407.74 -206.29,226.19 -331.57,527.4 -331.57,856.66l0 19596.91zm5631.79 330.77l-5962.57 0 0 -19927.68c0,-414.3 157.96,-793.69 418.13,-1078.96 260.74,-285.84 625.13,-477.27 1036.62,-514.27l1617.67 -1.8c40.18,-302.5 181.48,-573.85 388.19,-778.18 244.08,-240.76 578.53,-390.21 945.3,-390.21l2715.46 0c365.47,0 698.84,150.03 942.49,391.15 207.01,204.99 348.81,476.69 389.85,778.54l223.23 1.66c4524.13,-0.87 9643.09,-247.69 14074.54,0 384.22,27.34 747.89,222.3 1011.66,517.59 254.03,284.47 416.75,662.78 416.75,1074.48l0 19927.68 -5962.64 0 0 1774.77c-1985.31,20.92 -3975.45,4.4 -5961.48,4.4l0 3295.94 -6293.2 0 0 -5075.11z"/>
   <g>
    <path class="fil4" d="M9187.75 13454.02l0 6069.17 3459.45 0c614.6,0 1188.66,-50.35 1721.83,-150.82 531.8,-100.26 1024.86,-250.79 1478.54,-451.3 909.1,-401.89 1664.63,-928.06 2266.18,-1578.08 601.9,-650.52 1055.58,-1390.41 1360.69,-2219.37 152.69,-415.02 266.37,-835.17 340.8,-1260 74.65,-425.91 110.14,-855.65 106.46,-1288.63 -7.43,-869.57 -160.55,-1723.85 -459.16,-2562.26 -148.65,-417.33 -336.26,-811.65 -562.59,-1182.25 -226.48,-371.02 -492.34,-719.33 -797.08,-1044.69 -304.88,-325.36 -646.76,-618.78 -1025.58,-879.74 -379.61,-261.61 -797.08,-491.48 -1251.99,-689.25 -453.11,-196.98 -944.37,-344.99 -1473.35,-443.8 -529.2,-98.82 -1097.56,-148.29 -1704.73,-148.29l-3459.45 0 0 5720.15 5471.38 0 0 2109.15 -5471.38 0zm-254.47 6196.41l0 -6450.87 5471.38 0 0 -1600.22 -5471.38 0 0 -6229.08 3713.92 0c620.44,0 1204.17,51.14 1750.97,153.2 547.67,102.21 1057.17,255.91 1528.53,460.83 469.7,204.19 901.38,442 1294.69,713.05 394.32,271.7 749.84,576.66 1066.41,914.51 316.57,337.99 593.03,700.29 828.82,1086.53 235.93,386.31 431.18,796.36 585.53,1229.85 307.63,863.73 465.37,1745.41 473.01,2644.77 3.89,451.16 -32.68,896.04 -109.49,1334.36 -76.96,439.55 -194.68,874.26 -352.63,1303.71 -316.42,859.62 -787.63,1627.7 -1413.34,2303.9 -626.21,676.7 -1409.59,1223.07 -2349.7,1638.67 -470.84,208.09 -982.45,364.32 -1534.22,468.32 -550.55,103.72 -1140.12,155.72 -1768.57,155.72l-3713.92 0 0 -127.23z"/>
    <g>
     <polygon class="fil5" points="6795.21,19650.43 6795.21,5497.49 4757.1,5497.49 4757.1,19650.43 "/>
     <path class="fil6" d="M6667.97 19523.2l0 -13898.47 -1783.64 0 0 13898.47 1783.64 0zm254.47 -14025.7l0 14280.17 -2292.58 0 0 -14407.4 2292.58 0 0 127.23z"/>
     <path class="fil5" d="M9060.52 13326.79l0 6323.64 3029.86 0 556.82 0c1243.05,0 2326.91,-204.41 3251.58,-613.08 924.67,-408.82 1693.99,-944.94 2307.93,-1608.37 613.88,-663.43 1076.22,-1417.31 1387.02,-2261.63 310.65,-844.4 462.34,-1708.84 454.69,-2593.34 -7.57,-884.57 -162.94,-1752.41 -466.09,-2603.52 -303.15,-851.03 -765.56,-1608.23 -1387.01,-2271.66 -621.53,-663.43 -1394.59,-1196.16 -2319.34,-1598.27 -924.67,-402.04 -2000.89,-603.06 -3228.79,-603.06l-3586.68 0 0 5974.61 5471.38 0 0 1854.69 -5471.38 0z"/>
     <path class="fil7" d="M18803.78 5432.55l315.77 65.21c102.6,23.92 203.24,48.73 301.87,78.99 206.92,63.49 378.41,154.96 495.35,272.46 197.25,198.18 283.98,501.51 349.62,794.47l66.51 317.68c64,-340.57 133.37,-755.84 346.67,-1035.5 61.42,-80.53 56.15,-64.09 115.14,-121.33 15.14,-14.69 12.62,-10.81 26.97,-21.32l83.96 -60.73c21.21,-12.36 39.64,-23.24 62.27,-34.66 216.94,-109.41 492.07,-179.85 733.21,-223.3 44.35,-7.99 118.11,-19.13 158.95,-31.35 -368.29,-88.27 -833.08,-135.61 -1112.05,-415.28 -197.77,-198.27 -287.04,-503.84 -351.1,-793.5 -22.79,-103.08 -38.79,-220.1 -65.26,-321.72 -10.87,101.79 -115.02,527.19 -142.6,614.42 -61.08,193.19 -108.04,296.83 -225.1,446.09 -20.01,25.52 -68.92,78.67 -92.6,95.36 -70.39,49.59 -62.77,58.63 -173.12,116.87 -182.51,96.32 -372.28,144.56 -571.52,190.53 -105.78,24.41 -218.12,40.04 -322.94,66.6z"/>
    </g>
   </g>
  </g>
 </g>
</svg>
