<svg width="1103" height="660" viewBox="0 0 1103 660" fill="none" xmlns="http://www.w3.org/2000/svg">
<g opacity="0.5">
<mask id="mask0_553_5426" style="mask-type:alpha" maskUnits="userSpaceOnUse" x="0" y="60" width="1103" height="660">
<rect y="60" width="1102.26" height="660" fill="url(#paint0_radial_553_5426)"/>
</mask>
<g mask="url(#mask0_553_5426)">
<rect x="-9.65" y="0.35" width="65.3" height="65.3" stroke="#AC9764" stroke-width="0.7"/>
<rect x="56.35" y="0.35" width="65.3" height="65.3" stroke="#AC9764" stroke-width="0.7"/>
<rect x="122.35" y="0.35" width="65.3" height="65.3" fill="#C4ACF5" stroke="#AC9764" stroke-width="0.7"/>
<rect x="188.35" y="0.35" width="65.3" height="65.3" stroke="#AC9764" stroke-width="0.7"/>
<rect x="254.35" y="0.35" width="65.3" height="65.3" stroke="#AC9764" stroke-width="0.7"/>
<rect x="320.35" y="0.35" width="65.3" height="65.3" stroke="#AC9764" stroke-width="0.7"/>
<rect x="386.35" y="0.35" width="65.3" height="65.3" stroke="#AC9764" stroke-width="0.7"/>
<rect x="452.35" y="0.35" width="65.3" height="65.3" stroke="#AC9764" stroke-width="0.7"/>
<rect x="518.35" y="0.35" width="65.3" height="65.3" stroke="#AC9764" stroke-width="0.7"/>
<rect x="584.35" y="0.35" width="65.3" height="65.3" stroke="#AC9764" stroke-width="0.7"/>
<rect x="650.35" y="0.35" width="65.3" height="65.3" stroke="#AC9764" stroke-width="0.7"/>
<rect x="716.35" y="0.35" width="65.3" height="65.3" stroke="#AC9764" stroke-width="0.7"/>
<rect x="782.35" y="0.35" width="65.3" height="65.3" stroke="#AC9764" stroke-width="0.7"/>
<rect x="848.35" y="0.35" width="65.3" height="65.3" stroke="#AC9764" stroke-width="0.7"/>
<rect x="914.35" y="0.35" width="65.3" height="65.3" stroke="#AC9764" stroke-width="0.7"/>
<rect x="980.35" y="0.35" width="65.3" height="65.3" stroke="#AC9764" stroke-width="0.7"/>
<rect x="1046.35" y="0.35" width="65.3" height="65.3" stroke="#AC9764" stroke-width="0.7"/>
<rect x="-9.65" y="66.35" width="65.3" height="65.3" stroke="#AC9764" stroke-width="0.7"/>
<rect x="56.35" y="66.35" width="65.3" height="65.3" stroke="#AC9764" stroke-width="0.7"/>
<rect x="122.35" y="66.35" width="65.3" height="65.3" stroke="#AC9764" stroke-width="0.7"/>
<rect x="188.35" y="66.35" width="65.3" height="65.3" stroke="#AC9764" stroke-width="0.7"/>
<rect x="254.35" y="66.35" width="65.3" height="65.3" stroke="#AC9764" stroke-width="0.7"/>
<rect x="320.35" y="66.35" width="65.3" height="65.3" stroke="#AC9764" stroke-width="0.7"/>
<rect x="386.35" y="66.35" width="65.3" height="65.3" stroke="#AC9764" stroke-width="0.7"/>
<rect x="452.35" y="66.35" width="65.3" height="65.3" stroke="#AC9764" stroke-width="0.7"/>
<rect x="518.35" y="66.35" width="65.3" height="65.3" stroke="#AC9764" stroke-width="0.7"/>
<rect x="584.35" y="66.35" width="65.3" height="65.3" stroke="#AC9764" stroke-width="0.7"/>
<rect x="650.35" y="66.35" width="65.3" height="65.3" stroke="#AC9764" stroke-width="0.7"/>
<rect x="716.35" y="66.35" width="65.3" height="65.3" stroke="#AC9764" stroke-width="0.7"/>
<rect x="782.35" y="66.35" width="65.3" height="65.3" stroke="#AC9764" stroke-width="0.7"/>
<rect x="848.35" y="66.35" width="65.3" height="65.3" stroke="#AC9764" stroke-width="0.7"/>
<rect x="914.35" y="66.35" width="65.3" height="65.3" stroke="#AC9764" stroke-width="0.7"/>
<rect x="980.35" y="66.35" width="65.3" height="65.3" stroke="#AC9764" stroke-width="0.7"/>
<rect x="1046.35" y="66.35" width="65.3" height="65.3" stroke="#AC9764" stroke-width="0.7"/>
<rect x="-9.65" y="132.35" width="65.3" height="65.3" stroke="#AC9764" stroke-width="0.7"/>
<rect x="56.35" y="132.35" width="65.3" height="65.3" stroke="#AC9764" stroke-width="0.7"/>
<rect x="122.35" y="132.35" width="65.3" height="65.3" fill="#C4ACF5" stroke="#AC9764" stroke-width="0.7"/>
<rect x="188.35" y="132.35" width="65.3" height="65.3" stroke="#AC9764" stroke-width="0.7"/>
<rect x="254.35" y="132.35" width="65.3" height="65.3" fill="#F7DFA2" stroke="#AC9764" stroke-width="0.7"/>
<rect x="320.35" y="132.35" width="65.3" height="65.3" stroke="#AC9764" stroke-width="0.7"/>
<rect x="386.35" y="132.35" width="65.3" height="65.3" stroke="#AC9764" stroke-width="0.7"/>
<rect x="452.35" y="132.35" width="65.3" height="65.3" stroke="#AC9764" stroke-width="0.7"/>
<rect x="518.35" y="132.35" width="65.3" height="65.3" stroke="#AC9764" stroke-width="0.7"/>
<rect x="584.35" y="132.35" width="65.3" height="65.3" stroke="#AC9764" stroke-width="0.7"/>
<rect x="650.35" y="132.35" width="65.3" height="65.3" stroke="#AC9764" stroke-width="0.7"/>
<rect opacity="0.5" x="716.35" y="132.35" width="65.3" height="65.3" fill="#CEBAF7" stroke="#AC9764" stroke-width="0.7"/>
<rect x="782.35" y="132.35" width="65.3" height="65.3" stroke="#AC9764" stroke-width="0.7"/>
<rect x="848.35" y="132.35" width="65.3" height="65.3" stroke="#AC9764" stroke-width="0.7"/>
<rect x="914.35" y="132.35" width="65.3" height="65.3" stroke="#AC9764" stroke-width="0.7"/>
<rect x="980.35" y="132.35" width="65.3" height="65.3" stroke="#AC9764" stroke-width="0.7"/>
<rect x="1046.35" y="132.35" width="65.3" height="65.3" stroke="#AC9764" stroke-width="0.7"/>
<rect x="-9.65" y="198.35" width="65.3" height="65.3" stroke="#AC9764" stroke-width="0.7"/>
<rect x="56.35" y="198.35" width="65.3" height="65.3" stroke="#AC9764" stroke-width="0.7"/>
<rect x="122.35" y="198.35" width="65.3" height="65.3" stroke="#AC9764" stroke-width="0.7"/>
<rect x="188.35" y="198.35" width="65.3" height="65.3" stroke="#AC9764" stroke-width="0.7"/>
<rect x="254.35" y="198.35" width="65.3" height="65.3" stroke="#AC9764" stroke-width="0.7"/>
<rect x="320.35" y="198.35" width="65.3" height="65.3" stroke="#AC9764" stroke-width="0.7"/>
<rect x="386.35" y="198.35" width="65.3" height="65.3" fill="#CEBAF7" stroke="#AC9764" stroke-width="0.7"/>
<rect x="452.35" y="198.35" width="65.3" height="65.3" stroke="#AC9764" stroke-width="0.7"/>
<rect x="518.35" y="198.35" width="65.3" height="65.3" stroke="#AC9764" stroke-width="0.7"/>
<rect x="584.35" y="198.35" width="65.3" height="65.3" fill="#F7DFA2" stroke="#AC9764" stroke-width="0.7"/>
<rect x="650.35" y="198.35" width="65.3" height="65.3" stroke="#AC9764" stroke-width="0.7"/>
<rect x="716.35" y="198.35" width="65.3" height="65.3" stroke="#AC9764" stroke-width="0.7"/>
<rect x="782.35" y="198.35" width="65.3" height="65.3" stroke="#AC9764" stroke-width="0.7"/>
<rect x="848.35" y="198.35" width="65.3" height="65.3" stroke="#AC9764" stroke-width="0.7"/>
<rect x="914.35" y="198.35" width="65.3" height="65.3" stroke="#AC9764" stroke-width="0.7"/>
<rect x="980.35" y="198.35" width="65.3" height="65.3" stroke="#AC9764" stroke-width="0.7"/>
<rect x="1046.35" y="198.35" width="65.3" height="65.3" stroke="#AC9764" stroke-width="0.7"/>
<rect x="-9.65" y="264.35" width="65.3" height="65.3" stroke="#AC9764" stroke-width="0.7"/>
<rect x="56.35" y="264.35" width="65.3" height="65.3" stroke="#AC9764" stroke-width="0.7"/>
<rect x="122.35" y="264.35" width="65.3" height="65.3" stroke="#AC9764" stroke-width="0.7"/>
<rect x="188.35" y="264.35" width="65.3" height="65.3" stroke="#AC9764" stroke-width="0.7"/>
<rect x="254.35" y="264.35" width="65.3" height="65.3" stroke="#AC9764" stroke-width="0.7"/>
<rect x="320.35" y="264.35" width="65.3" height="65.3" stroke="#AC9764" stroke-width="0.7"/>
<rect x="386.35" y="264.35" width="65.3" height="65.3" stroke="#AC9764" stroke-width="0.7"/>
<rect x="452.35" y="264.35" width="65.3" height="65.3" stroke="#AC9764" stroke-width="0.7"/>
<rect x="518.35" y="264.35" width="65.3" height="65.3" stroke="#AC9764" stroke-width="0.7"/>
<rect x="584.35" y="264.35" width="65.3" height="65.3" stroke="#AC9764" stroke-width="0.7"/>
<rect x="650.35" y="264.35" width="65.3" height="65.3" stroke="#AC9764" stroke-width="0.7"/>
<rect x="716.35" y="264.35" width="65.3" height="65.3" stroke="#AC9764" stroke-width="0.7"/>
<rect x="782.35" y="264.35" width="65.3" height="65.3" stroke="#AC9764" stroke-width="0.7"/>
<rect x="848.35" y="264.35" width="65.3" height="65.3" fill="#F7DFA2" stroke="#AC9764" stroke-width="0.7"/>
<rect x="914.35" y="264.35" width="65.3" height="65.3" stroke="#AC9764" stroke-width="0.7"/>
<rect x="980.35" y="264.35" width="65.3" height="65.3" stroke="#AC9764" stroke-width="0.7"/>
<rect x="1046.35" y="264.35" width="65.3" height="65.3" stroke="#AC9764" stroke-width="0.7"/>
<rect x="-9.65" y="330.35" width="65.3" height="65.3" stroke="#AC9764" stroke-width="0.7"/>
<rect x="56.35" y="330.35" width="65.3" height="65.3" stroke="#AC9764" stroke-width="0.7"/>
<rect x="122.35" y="330.35" width="65.3" height="65.3" fill="#F7DFA2" stroke="#AC9764" stroke-width="0.7"/>
<rect x="188.35" y="330.35" width="65.3" height="65.3" stroke="#AC9764" stroke-width="0.7"/>
<rect x="254.35" y="330.35" width="65.3" height="65.3" stroke="#AC9764" stroke-width="0.7"/>
<rect x="320.35" y="330.35" width="65.3" height="65.3" stroke="#AC9764" stroke-width="0.7"/>
<rect x="386.35" y="330.35" width="65.3" height="65.3" fill="#F7DFA2" stroke="#AC9764" stroke-width="0.7"/>
<rect x="452.35" y="330.35" width="65.3" height="65.3" stroke="#AC9764" stroke-width="0.7"/>
<rect x="518.35" y="330.35" width="65.3" height="65.3" stroke="#AC9764" stroke-width="0.7"/>
<rect x="584.35" y="330.35" width="65.3" height="65.3" fill="#CEBAF7" stroke="#AC9764" stroke-width="0.7"/>
<rect x="650.35" y="330.35" width="65.3" height="65.3" stroke="#AC9764" stroke-width="0.7"/>
<rect x="716.35" y="330.35" width="65.3" height="65.3" stroke="#AC9764" stroke-width="0.7"/>
<rect x="782.35" y="330.35" width="65.3" height="65.3" stroke="#AC9764" stroke-width="0.7"/>
<rect x="848.35" y="330.35" width="65.3" height="65.3" stroke="#AC9764" stroke-width="0.7"/>
<rect x="914.35" y="330.35" width="65.3" height="65.3" stroke="#AC9764" stroke-width="0.7"/>
<rect x="980.35" y="330.35" width="65.3" height="65.3" stroke="#AC9764" stroke-width="0.7"/>
<rect x="1046.35" y="330.35" width="65.3" height="65.3" fill="#C4ACF5" stroke="#AC9764" stroke-width="0.7"/>
<rect x="-9.65" y="396.35" width="65.3" height="65.3" stroke="#AC9764" stroke-width="0.7"/>
<rect x="56.35" y="396.35" width="65.3" height="65.3" stroke="#AC9764" stroke-width="0.7"/>
<rect x="122.35" y="396.35" width="65.3" height="65.3" stroke="#AC9764" stroke-width="0.7"/>
<rect x="188.35" y="396.35" width="65.3" height="65.3" stroke="#AC9764" stroke-width="0.7"/>
<rect x="254.35" y="396.35" width="65.3" height="65.3" fill="#CEBAF7" stroke="#AC9764" stroke-width="0.7"/>
<rect x="320.35" y="396.35" width="65.3" height="65.3" stroke="#AC9764" stroke-width="0.7"/>
<rect x="386.35" y="396.35" width="65.3" height="65.3" stroke="#AC9764" stroke-width="0.7"/>
<rect x="452.35" y="396.35" width="65.3" height="65.3" stroke="#AC9764" stroke-width="0.7"/>
<rect x="518.35" y="396.35" width="65.3" height="65.3" stroke="#AC9764" stroke-width="0.7"/>
<rect x="584.35" y="396.35" width="65.3" height="65.3" stroke="#AC9764" stroke-width="0.7"/>
<rect x="650.35" y="396.35" width="65.3" height="65.3" stroke="#AC9764" stroke-width="0.7"/>
<rect x="716.35" y="396.35" width="65.3" height="65.3" fill="#F7DFA2" stroke="#AC9764" stroke-width="0.7"/>
<rect x="782.35" y="396.35" width="65.3" height="65.3" stroke="#AC9764" stroke-width="0.7"/>
<rect x="848.35" y="396.35" width="65.3" height="65.3" stroke="#AC9764" stroke-width="0.7"/>
<rect x="914.35" y="396.35" width="65.3" height="65.3" stroke="#AC9764" stroke-width="0.7"/>
<rect x="980.35" y="396.35" width="65.3" height="65.3" stroke="#AC9764" stroke-width="0.7"/>
<rect x="1046.35" y="396.35" width="65.3" height="65.3" stroke="#AC9764" stroke-width="0.7"/>
<rect x="-9.65" y="462.35" width="65.3" height="65.3" stroke="#AC9764" stroke-width="0.7"/>
<rect x="56.35" y="462.35" width="65.3" height="65.3" stroke="#AC9764" stroke-width="0.7"/>
<rect x="122.35" y="462.35" width="65.3" height="65.3" stroke="#AC9764" stroke-width="0.7"/>
<rect x="188.35" y="462.35" width="65.3" height="65.3" stroke="#AC9764" stroke-width="0.7"/>
<rect x="254.35" y="462.35" width="65.3" height="65.3" stroke="#AC9764" stroke-width="0.7"/>
<rect x="320.35" y="462.35" width="65.3" height="65.3" stroke="#AC9764" stroke-width="0.7"/>
<rect x="386.35" y="462.35" width="65.3" height="65.3" stroke="#AC9764" stroke-width="0.7"/>
<rect x="452.35" y="462.35" width="65.3" height="65.3" stroke="#AC9764" stroke-width="0.7"/>
<rect x="518.35" y="462.35" width="65.3" height="65.3" fill="#CEBAF7" stroke="#AC9764" stroke-width="0.7"/>
<rect x="584.35" y="462.35" width="65.3" height="65.3" stroke="#AC9764" stroke-width="0.7"/>
<rect x="650.35" y="462.35" width="65.3" height="65.3" stroke="#AC9764" stroke-width="0.7"/>
<rect x="716.35" y="462.35" width="65.3" height="65.3" stroke="#AC9764" stroke-width="0.7"/>
<rect x="782.35" y="462.35" width="65.3" height="65.3" stroke="#AC9764" stroke-width="0.7"/>
<rect x="848.35" y="462.35" width="65.3" height="65.3" stroke="#AC9764" stroke-width="0.7"/>
<rect x="914.35" y="462.35" width="65.3" height="65.3" fill="#C4ACF5" stroke="#AC9764" stroke-width="0.7"/>
<rect x="980.35" y="462.35" width="65.3" height="65.3" stroke="#AC9764" stroke-width="0.7"/>
<rect x="1046.35" y="462.35" width="65.3" height="65.3" stroke="#AC9764" stroke-width="0.7"/>
<rect x="-9.65" y="528.35" width="65.3" height="65.3" stroke="#AC9764" stroke-width="0.7"/>
<rect x="56.35" y="528.35" width="65.3" height="65.3" stroke="#AC9764" stroke-width="0.7"/>
<rect x="122.35" y="528.35" width="65.3" height="65.3" stroke="#AC9764" stroke-width="0.7"/>
<rect x="188.35" y="528.35" width="65.3" height="65.3" stroke="#AC9764" stroke-width="0.7"/>
<rect x="254.35" y="528.35" width="65.3" height="65.3" stroke="#AC9764" stroke-width="0.7"/>
<rect x="320.35" y="528.35" width="65.3" height="65.3" stroke="#AC9764" stroke-width="0.7"/>
<rect x="386.35" y="528.35" width="65.3" height="65.3" stroke="#AC9764" stroke-width="0.7"/>
<rect x="452.35" y="528.35" width="65.3" height="65.3" stroke="#AC9764" stroke-width="0.7"/>
<rect x="518.35" y="528.35" width="65.3" height="65.3" stroke="#AC9764" stroke-width="0.7"/>
<rect x="584.35" y="528.35" width="65.3" height="65.3" stroke="#AC9764" stroke-width="0.7"/>
<rect x="650.35" y="528.35" width="65.3" height="65.3" stroke="#AC9764" stroke-width="0.7"/>
<rect x="716.35" y="528.35" width="65.3" height="65.3" stroke="#AC9764" stroke-width="0.7"/>
<rect x="782.35" y="528.35" width="65.3" height="65.3" stroke="#AC9764" stroke-width="0.7"/>
<rect x="848.35" y="528.35" width="65.3" height="65.3" stroke="#AC9764" stroke-width="0.7"/>
<rect x="914.35" y="528.35" width="65.3" height="65.3" stroke="#AC9764" stroke-width="0.7"/>
<rect x="980.35" y="528.35" width="65.3" height="65.3" stroke="#AC9764" stroke-width="0.7"/>
<rect x="1046.35" y="528.35" width="65.3" height="65.3" stroke="#AC9764" stroke-width="0.7"/>
<rect x="-9.65" y="594.35" width="65.3" height="65.3" stroke="#AC9764" stroke-width="0.7"/>
<rect x="56.35" y="594.35" width="65.3" height="65.3" stroke="#AC9764" stroke-width="0.7"/>
<rect x="122.35" y="594.35" width="65.3" height="65.3" stroke="#AC9764" stroke-width="0.7"/>
<rect x="188.35" y="594.35" width="65.3" height="65.3" stroke="#AC9764" stroke-width="0.7"/>
<rect x="254.35" y="594.35" width="65.3" height="65.3" stroke="#AC9764" stroke-width="0.7"/>
<rect x="320.35" y="594.35" width="65.3" height="65.3" stroke="#AC9764" stroke-width="0.7"/>
<rect x="386.35" y="594.35" width="65.3" height="65.3" stroke="#AC9764" stroke-width="0.7"/>
<rect x="452.35" y="594.35" width="65.3" height="65.3" stroke="#AC9764" stroke-width="0.7"/>
<rect x="518.35" y="594.35" width="65.3" height="65.3" stroke="#AC9764" stroke-width="0.7"/>
<rect x="584.35" y="594.35" width="65.3" height="65.3" stroke="#AC9764" stroke-width="0.7"/>
<rect x="650.35" y="594.35" width="65.3" height="65.3" stroke="#AC9764" stroke-width="0.7"/>
<rect x="716.35" y="594.35" width="65.3" height="65.3" stroke="#AC9764" stroke-width="0.7"/>
<rect x="782.35" y="594.35" width="65.3" height="65.3" stroke="#AC9764" stroke-width="0.7"/>
<rect x="848.35" y="594.35" width="65.3" height="65.3" stroke="#AC9764" stroke-width="0.7"/>
<rect x="914.35" y="594.35" width="65.3" height="65.3" stroke="#AC9764" stroke-width="0.7"/>
<rect x="980.35" y="594.35" width="65.3" height="65.3" stroke="#AC9764" stroke-width="0.7"/>
<rect x="1046.35" y="594.35" width="65.3" height="65.3" stroke="#AC9764" stroke-width="0.7"/>
</g>
</g>
<defs>
<radialGradient id="paint0_radial_553_5426" cx="0" cy="0" r="1" gradientUnits="userSpaceOnUse" gradientTransform="translate(551 329.5) rotate(90) scale(238 446.476)">
<stop stop-color="#6402D4" stop-opacity="0.4"/>
<stop offset="1" stop-color="white" stop-opacity="0.01"/>
</radialGradient>
</defs>
</svg>
