<?xml version="1.0" encoding="UTF-8"?>
<!DOCTYPE svg PUBLIC "-//W3C//DTD SVG 1.1//EN" "http://www.w3.org/Graphics/SVG/1.1/DTD/svg11.dtd">
<!-- Creator: CorelDRAW 2019 (64-Bit) -->
<svg xmlns="http://www.w3.org/2000/svg" xml:space="preserve" width="44.2661in" height="8.98747in" version="1.1" style="shape-rendering:geometricPrecision; text-rendering:geometricPrecision; image-rendering:optimizeQuality; fill-rule:evenodd; clip-rule:evenodd"
viewBox="0 0 44256.99 8985.63"
 xmlns:xlink="http://www.w3.org/1999/xlink">
 <defs>
  <style type="text/css">
   <![CDATA[
    .str0 {stroke:#2A194D;stroke-width:6.94;stroke-miterlimit:2.61313}
    .fil2 {fill:#2A194D}
    .fil8 {fill:#F8E3B4}
    .fil6 {fill:white}
    .fil1 {fill:#2A194D;fill-rule:nonzero}
    .fil0 {fill:#310A80;fill-rule:nonzero}
    .fil4 {fill:#F8E3B4;fill-rule:nonzero}
    .fil3 {fill:url(#id0)}
    .fil5 {fill:url(#id1);fill-rule:nonzero}
    .fil7 {fill:url(#id2);fill-rule:nonzero}
   ]]>
  </style>
  <linearGradient id="id0" gradientUnits="userSpaceOnUse" x1="2743.84" y1="8735.69" x2="5081.19" y2="249.94">
   <stop offset="0" style="stop-opacity:1; stop-color:#2A194D"/>
   <stop offset="0.541176" style="stop-opacity:1; stop-color:#311174"/>
   <stop offset="1" style="stop-opacity:1; stop-color:#39089C"/>
  </linearGradient>
  <linearGradient id="id1" gradientUnits="userSpaceOnUse" x1="4104.22" y1="1851.02" x2="5315.87" y2="6287.28">
   <stop offset="0" style="stop-opacity:1; stop-color:#6131BF"/>
   <stop offset="0.678431" style="stop-opacity:1; stop-color:#482293"/>
   <stop offset="1" style="stop-opacity:1; stop-color:#2F1367"/>
  </linearGradient>
  <linearGradient id="id2" gradientUnits="userSpaceOnUse" xlink:href="#id1" x1="726.58" y1="3215.95" x2="3011.95" y2="4922.35">
  </linearGradient>
 </defs>
 <g id="Layer_x0020_1">
  <metadata id="CorelCorpID_0Corel-Layer"/>
  <g id="_1986898411424">
   <path class="fil0" d="M9232.35 5255.84c-25.66,0 -46.73,-8.25 -63.22,-24.74 -16.49,-16.49 -24.74,-37.57 -24.74,-63.22l0 -3859.25c0,-25.66 8.25,-46.73 24.74,-63.22 16.49,-16.49 37.57,-24.74 63.22,-24.74l1352.39 0c384.82,0 710.09,97.12 975.81,291.37 265.71,194.24 464.54,445.3 596.48,753.16 131.94,307.86 197.91,632.22 197.91,973.06 0,344.51 -65.97,670.7 -197.91,978.56 -131.94,307.86 -332.6,558 -601.98,750.41 -269.38,192.41 -596.48,288.62 -981.31,288.62l-1341.39 0zm1341.39 -296.86c384.83,0 683.53,-150.26 896.1,-450.8 212.57,-300.53 318.86,-723.84 318.86,-1269.92 0,-546.08 -106.29,-969.4 -318.86,-1269.92 -212.57,-300.53 -511.27,-450.8 -896.1,-450.8l-857.61 0 0 3441.44 857.61 0z"/>
   <path id="1" class="fil0" d="M13025.63 5255.84c-25.66,0 -46.73,-8.25 -63.22,-24.74 -16.49,-16.49 -24.74,-37.57 -24.74,-63.22l0 -3859.25c0,-25.66 8.25,-46.73 24.74,-63.22 16.49,-16.49 37.57,-24.74 63.22,-24.74l2710.27 0c36.65,0 62.31,20.16 76.96,60.47l49.48 186.91c3.66,7.33 5.5,18.33 5.5,32.99 0,29.32 -10.08,53.14 -30.24,71.47 -20.16,18.32 -46.73,25.66 -79.71,21.99 -568.08,-51.31 -1317.57,-76.97 -2248.48,-76.97l0 1572.29c307.86,0 558,-3.66 750.41,-10.99 192.41,-7.33 393.07,-21.99 601.98,-43.98l10.99 0c25.66,0 47.65,9.16 65.97,27.49 18.33,18.33 27.49,40.31 27.49,65.97l0 219.9c0,29.32 -7.33,53.14 -21.99,71.47 -14.66,18.32 -34.82,25.65 -60.47,21.99 -216.24,-21.99 -421.48,-36.65 -615.72,-43.98 -194.24,-7.33 -447.13,-10.99 -758.66,-10.99l0 1572.29c930.91,0 1680.41,-25.66 2248.48,-76.96l16.49 0c32.99,0 59.55,12.83 79.71,38.48 20.16,25.66 24.74,54.98 13.75,87.96l-54.98 186.91c-14.66,40.31 -40.31,60.47 -76.96,60.47l-2710.27 0z"/>
   <path id="2" class="fil0" d="M16615.5 5255.84c-25.66,0 -46.73,-8.25 -63.22,-24.74 -16.49,-16.49 -24.74,-37.57 -24.74,-63.22l0 -3859.25c0,-25.66 8.25,-46.73 24.74,-63.22 16.49,-16.49 37.57,-24.74 63.22,-24.74l395.82 0c25.65,0 46.73,8.25 63.22,24.74 16.49,16.49 24.74,37.57 24.74,63.22l0 3650.35c930.91,0 1680.41,-25.66 2248.48,-76.96l16.49 0c32.99,0 59.55,12.83 79.71,38.48 20.16,25.66 24.74,54.98 13.75,87.96l-54.98 186.91c-14.66,40.31 -40.31,60.47 -76.96,60.47l-2710.27 0z"/>
   <path id="3" class="fil0" d="M20023.96 5255.84c-25.66,0 -46.73,-8.25 -63.22,-24.74 -16.49,-16.49 -24.74,-37.57 -24.74,-63.22l0 -3859.25c0,-25.66 8.25,-46.73 24.74,-63.22 16.49,-16.49 37.57,-24.74 63.22,-24.74l2710.27 0c36.65,0 62.31,20.16 76.96,60.47l49.48 186.91c3.66,7.33 5.5,18.33 5.5,32.99 0,29.32 -10.08,53.14 -30.24,71.47 -20.16,18.32 -46.73,25.66 -79.71,21.99 -568.08,-51.31 -1317.57,-76.97 -2248.48,-76.97l0 1572.29c307.86,0 558,-3.66 750.41,-10.99 192.41,-7.33 393.07,-21.99 601.98,-43.98l10.99 0c25.66,0 47.65,9.16 65.97,27.49 18.33,18.33 27.49,40.31 27.49,65.97l0 219.9c0,29.32 -7.33,53.14 -21.99,71.47 -14.66,18.32 -34.82,25.65 -60.47,21.99 -216.24,-21.99 -421.48,-36.65 -615.72,-43.98 -194.24,-7.33 -447.13,-10.99 -758.66,-10.99l0 1572.29c930.91,0 1680.41,-25.66 2248.48,-76.96l16.49 0c32.99,0 59.55,12.83 79.71,38.48 20.16,25.66 24.74,54.98 13.75,87.96l-54.98 186.91c-14.66,40.31 -40.31,60.47 -76.96,60.47l-2710.27 0z"/>
   <path id="4" class="fil0" d="M24757.32 5255.84c-18.32,0 -34.82,-5.5 -49.48,-16.49 -14.66,-10.99 -23.82,-23.82 -27.49,-38.48l-1440.35 -3842.76c-3.66,-7.33 -5.5,-20.16 -5.5,-38.48 0,-29.32 10.08,-53.14 30.24,-71.47 20.16,-18.32 44.9,-27.49 74.21,-27.49l417.81 0c18.33,0 34.82,5.5 49.48,16.49 14.66,10.99 23.82,23.82 27.49,38.48l1291.92 3468.93 170.42 -461.79c384.83,-1037.2 637.71,-1727.13 758.66,-2069.81 120.94,-342.68 218.07,-653.29 291.37,-931.83 11,-40.31 38.48,-60.47 82.46,-60.47l225.4 0c32.99,0 59.55,9.16 79.71,27.49 20.16,18.33 30.24,42.15 30.24,71.47 0,10.99 -3.66,27.49 -10.99,49.48 -102.62,216.24 -216.24,485.61 -340.85,808.13 -124.61,322.52 -311.53,815.46 -560.75,1478.83 -54.97,131.94 -115.44,289.54 -181.42,472.79 -36.65,98.96 -71.47,190.58 -104.45,274.88l-38.48 109.95c-124.61,337.18 -208.91,566.24 -252.89,687.19 -18.33,36.65 -43.98,54.97 -76.96,54.97l-439.8 0z"/>
   <path id="5" class="fil0" d="M27357.64 5255.84c-25.66,0 -46.73,-8.25 -63.22,-24.74 -16.49,-16.49 -24.74,-37.57 -24.74,-63.22l0 -3859.25c0,-25.66 8.25,-46.73 24.74,-63.22 16.49,-16.49 37.57,-24.74 63.22,-24.74l2710.27 0c36.65,0 62.31,20.16 76.96,60.47l49.48 186.91c3.66,7.33 5.5,18.33 5.5,32.99 0,29.32 -10.08,53.14 -30.24,71.47 -20.16,18.32 -46.73,25.66 -79.71,21.99 -568.08,-51.31 -1317.57,-76.97 -2248.48,-76.97l0 1572.29c307.86,0 558,-3.66 750.41,-10.99 192.41,-7.33 393.07,-21.99 601.98,-43.98l10.99 0c25.66,0 47.65,9.16 65.97,27.49 18.33,18.33 27.49,40.31 27.49,65.97l0 219.9c0,29.32 -7.33,53.14 -21.99,71.47 -14.66,18.32 -34.82,25.65 -60.47,21.99 -216.24,-21.99 -421.48,-36.65 -615.72,-43.98 -194.24,-7.33 -447.13,-10.99 -758.66,-10.99l0 1572.29c930.91,0 1680.41,-25.66 2248.48,-76.96l16.49 0c32.99,0 59.55,12.83 79.71,38.48 20.16,25.66 24.74,54.98 13.75,87.96l-54.98 186.91c-14.66,40.31 -40.31,60.47 -76.96,60.47l-2710.27 0z"/>
   <path id="6" class="fil0" d="M33910.68 1319.63c-25.66,344.51 -42.14,703.68 -49.48,1077.51 -7.33,373.83 -10.99,885.1 -10.99,1533.8l0 1231.44c0,25.66 -8.25,47.64 -24.74,65.97 -16.49,18.32 -37.57,27.49 -63.22,27.49l-126.44 0c-25.66,0 -45.81,-10.99 -60.48,-32.99l-2418.9 -3408.46 0 1033.53c0,553.41 4.58,998.71 13.74,1335.9 9.16,337.18 24.74,661.53 46.73,973.06 0,29.32 -9.16,53.14 -27.49,71.47 -18.32,18.32 -40.31,27.49 -65.97,27.49l-230.9 0c-25.66,0 -47.64,-9.16 -65.97,-27.49 -18.32,-18.33 -27.49,-42.15 -27.49,-71.47 25.66,-344.51 42.15,-703.68 49.48,-1077.51 7.33,-373.83 10.99,-885.1 10.99,-1533.8l0 -1231.44c0,-25.66 8.25,-47.64 24.74,-65.97 16.49,-18.32 37.57,-27.49 63.22,-27.49l445.3 0c25.65,0 45.81,10.99 60.47,32.99l2100.05 2957.66 0 -588.23c0,-549.75 -4.58,-993.22 -13.75,-1330.4 -9.16,-337.18 -24.74,-661.53 -46.73,-973.06 0,-29.32 9.16,-53.14 27.49,-71.47 18.32,-18.32 40.31,-27.49 65.97,-27.49l230.89 0c25.66,0 47.64,9.16 65.97,27.49 18.32,18.33 27.49,42.15 27.49,71.47z"/>
   <path id="7" class="fil0" d="M35675.38 5255.84c-25.66,0 -46.73,-8.25 -63.22,-24.74 -16.49,-16.49 -24.74,-37.57 -24.74,-63.22l0 -3650.35c-428.81,0 -786.14,25.66 -1072.01,76.97 -43.98,7.33 -78.8,-2.75 -104.45,-30.24 -25.66,-27.49 -32.99,-63.22 -21.99,-107.2l49.48 -175.92c14.66,-40.31 40.31,-60.47 76.96,-60.47l2715.77 0c36.65,0 62.31,20.16 76.96,60.47l49.48 175.92c10.99,40.31 3.66,74.22 -21.99,101.7 -25.65,27.49 -60.47,39.4 -104.45,35.74 -285.87,-51.31 -643.21,-76.97 -1072.01,-76.97l0 3650.35c0,25.65 -8.25,46.73 -24.74,63.22 -16.49,16.49 -37.57,24.74 -63.22,24.74l-395.82 0z"/>
   <path id="8" class="fil0" d="M40854.03 1220.67c29.32,0 53.14,6.41 71.47,19.24 18.32,12.83 25.65,28.4 21.99,46.73 -40.31,538.76 -60.47,1205.79 -60.47,2001.09l0 379.33 0 16.49 0 21.99c-3.66,516.76 -131.94,918.08 -384.83,1203.95 -252.89,285.87 -602.89,428.81 -1050.03,428.81 -311.52,0 -583.65,-65.97 -816.38,-197.91 -232.73,-131.94 -413.23,-321.6 -541.5,-568.99 -128.28,-247.39 -194.25,-537.84 -197.91,-871.36l0 -2391.42c0,-25.66 8.25,-46.73 24.74,-63.22 16.49,-16.49 37.57,-24.74 63.22,-24.74l395.82 0c25.65,0 46.73,8.25 63.22,24.74 16.49,16.49 24.74,37.57 24.74,63.22l0 2358.43c0,483.78 80.63,833.79 241.89,1050.03 161.26,216.24 423.31,324.35 786.15,324.35 344.51,0 612.97,-120.95 805.38,-362.84 192.41,-241.89 288.62,-579.07 288.62,-1011.54l0 -368.33c0,-791.64 -20.16,-1451.34 -60.47,-1979.1 0,-29.32 9.16,-53.14 27.49,-71.47 18.32,-18.32 40.31,-27.49 65.97,-27.49l230.89 0z"/>
   <path id="9" class="fil0" d="M42893.61 5343.81c-307.86,0 -585.49,-71.47 -832.88,-214.4 -247.39,-142.94 -426.05,-333.51 -536,-571.74 -3.66,-7.33 -5.5,-18.32 -5.5,-32.99 0,-43.98 18.33,-71.47 54.98,-82.46l225.39 -93.46c21.99,-7.33 36.65,-10.99 43.98,-10.99 21.99,0 42.14,7.33 60.47,21.99 18.32,14.66 29.32,34.82 32.99,60.47 47.64,194.24 158.51,349.09 332.6,464.54 174.09,115.45 383.91,173.17 629.47,173.17 252.89,0 454.46,-63.22 604.73,-189.67 150.26,-126.44 225.4,-295.95 225.4,-508.52 0,-186.92 -43.98,-338.1 -131.94,-453.54 -87.96,-115.45 -198.83,-205.24 -332.6,-269.38 -133.78,-64.14 -319.77,-136.52 -558,-217.15 -245.56,-84.3 -446.21,-164.93 -601.98,-241.89 -155.76,-76.96 -287.7,-187.83 -395.82,-332.6 -108.12,-144.77 -162.18,-330.77 -162.18,-558 0,-219.9 57.72,-416.89 173.17,-590.98 115.45,-174.09 275.79,-310.61 481.03,-409.57 205.24,-98.96 437.97,-148.43 698.18,-148.43 304.2,0 574.49,70.55 810.89,211.65 236.39,141.1 405.9,330.77 508.52,568.99 3.66,7.33 5.5,16.49 5.5,27.49 0,36.65 -18.33,64.14 -54.98,82.46l-225.4 93.46c-14.66,7.33 -27.49,11 -38.48,11 -21.99,0 -41.23,-8.25 -57.72,-24.74 -16.49,-16.49 -28.4,-37.57 -35.73,-63.22 -43.98,-190.58 -148.43,-342.68 -313.36,-456.29 -164.92,-113.61 -364.67,-170.42 -599.23,-170.42 -249.22,0 -450.79,64.14 -604.73,192.41 -153.93,128.28 -230.89,296.87 -230.89,505.77 0,146.6 38.48,266.63 115.44,360.08 76.97,93.46 176.84,169.51 299.62,228.15 122.78,58.64 292.29,124.61 508.52,197.91 267.54,91.63 485.61,181.42 654.2,269.38 168.59,87.96 313.36,216.24 434.3,384.83 120.95,168.59 181.42,384.83 181.42,648.71 0,216.24 -58.64,411.4 -175.92,585.49 -117.28,174.09 -279.46,309.69 -486.53,406.81 -207.07,97.12 -440.72,145.69 -700.93,145.69z"/>
   <path class="fil1" d="M9270.03 6313.49l127.14 0 0 831.31c105.95,0 201.71,-1.42 287.29,-4.28 85.58,-2.85 167.49,-8.35 245.73,-16.5l-24.45 86.8 -635.71 0 0 -897.33z"/>
   <path id="1" class="fil1" d="M11371.06 6313.49c-9.78,121.44 -14.67,274.25 -14.67,458.45l0 85.58 0 12.23c-1.63,113.29 -30.36,201.51 -86.19,264.67 -55.83,63.16 -133.46,94.75 -232.89,94.75 -69.28,0 -129.79,-14.67 -181.55,-44.01 -51.75,-29.34 -91.89,-71.52 -120.42,-126.53 -28.53,-55.01 -43.2,-119.6 -44.01,-193.77l0 -551.36 127.14 0 0 544.02c0,107.58 17.93,185.41 53.79,233.5 35.86,48.08 94.13,72.13 174.82,72.13 76.61,0 136.31,-26.9 179.1,-80.68 42.79,-53.79 64.18,-128.77 64.18,-224.95l0 -85.58c0,-184.19 -4.89,-337.01 -14.67,-458.45l95.36 0z"/>
   <path id="2" class="fil1" d="M12148.11 7210.83c84.76,-104.32 189.49,-245.32 314.19,-422.99l-292.18 -474.34 147.93 0 224.94 361.87c64.39,-90.47 115.12,-163.61 152.21,-219.44 37.08,-55.83 66.22,-103.3 87.41,-142.42l113.69 0c-84.76,104.32 -189.49,245.32 -314.19,422.99l292.18 474.34 -147.93 0 -224.94 -361.87c-64.39,90.47 -115.12,163.62 -152.21,219.44 -37.08,55.83 -66.22,103.3 -87.41,142.42l-113.69 0z"/>
   <path id="3" class="fil1" d="M14367.73 6313.49c-9.78,121.44 -14.67,274.25 -14.67,458.45l0 85.58 0 12.23c-1.63,113.29 -30.36,201.51 -86.19,264.67 -55.83,63.16 -133.46,94.75 -232.89,94.75 -69.28,0 -129.79,-14.67 -181.55,-44.01 -51.75,-29.34 -91.89,-71.52 -120.42,-126.53 -28.53,-55.01 -43.2,-119.6 -44.01,-193.77l0 -551.36 127.14 0 0 544.02c0,107.58 17.93,185.41 53.79,233.5 35.86,48.08 94.13,72.13 174.82,72.13 76.61,0 136.31,-26.9 179.1,-80.68 42.79,-53.79 64.18,-128.77 64.18,-224.95l0 -85.58c0,-184.19 -4.89,-337.01 -14.67,-458.45l95.36 0z"/>
   <path id="4" class="fil1" d="M15219.34 6313.49l353.31 0c61.94,0 116.34,11.21 163.21,33.62 46.86,22.41 83.33,53.79 109.41,94.13 26.08,40.35 39.12,87.01 39.12,139.98 0,62.75 -18.13,116.55 -54.4,161.37 -36.27,44.83 -86.19,75.8 -149.76,92.91l222.5 375.31 -149.15 0 -213.94 -361.87 -193.16 0 0 361.87 -127.14 0 0 -897.33zm350.86 469.45c61.94,0 108.8,-16.91 140.59,-50.74 31.78,-33.82 47.68,-84.15 47.68,-150.98 0,-66.83 -15.89,-117.16 -47.68,-150.98 -31.79,-33.82 -78.65,-50.73 -140.59,-50.73l-223.72 0 0 403.43 223.72 0z"/>
   <path id="5" class="fil1" d="M16959.73 6866.07l-344.75 -552.58 147.93 0 286.07 457.23c84.76,-133.67 147.93,-234.32 189.49,-301.97 41.57,-67.64 70.5,-119.4 86.8,-155.26l113.69 0c-30.16,35.05 -71.92,92.91 -125.31,173.6 -53.39,80.69 -128.98,198.86 -226.78,354.53l0 369.2 -127.14 0 0 -344.75z"/>
   <path id="6" class="fil1" d="M18976.42 7229.16c-79.87,0 -152.21,-20.17 -217,-60.52 -64.79,-40.34 -115.53,-96.17 -152.21,-167.49 -36.67,-71.32 -55.01,-150.98 -55.01,-239 0,-87.21 18.54,-166.47 55.63,-237.78 37.08,-71.31 87.82,-127.14 152.2,-167.49 64.39,-40.34 136.52,-60.52 216.39,-60.52 79.87,0 152,20.17 216.38,60.52 64.38,40.34 115.12,96.17 152.21,167.49 37.08,71.31 55.62,150.58 55.62,237.78 0,88.02 -18.34,167.69 -55.01,239 -36.68,71.31 -87.41,127.14 -152.21,167.49 -64.79,40.34 -137.13,60.52 -216.99,60.52zm0 -63.57c61.13,0 114.1,-16.1 158.93,-48.29 44.83,-32.19 79.26,-78.65 103.3,-139.37 24.04,-60.72 36.06,-132.65 36.06,-215.77 0,-82.32 -12.02,-153.83 -36.06,-214.55 -24.04,-60.72 -58.48,-107.17 -103.3,-139.37 -44.83,-32.19 -97.8,-48.29 -158.93,-48.29 -61.13,0 -114.1,16.1 -158.93,48.29 -44.83,32.19 -79.26,78.65 -103.31,139.37 -24.04,60.72 -36.06,132.24 -36.06,214.55 0,83.13 12.02,155.05 36.06,215.77 24.04,60.72 58.48,107.17 103.31,139.37 44.83,32.19 97.8,48.29 158.93,48.29z"/>
   <path id="7" class="fil1" d="M20897.74 6313.49c-5.71,81.5 -9.58,165.45 -11.62,251.84 -2.04,86.39 -3.06,207.01 -3.06,361.86l0 283.63 -56.23 0 -542.8 -764.08 0 193.16c0,141 1.02,252.25 3.06,333.75 2.04,81.5 5.91,160.56 11.61,237.17l-95.35 0c5.7,-81.5 9.58,-165.45 11.61,-251.84 2.04,-86.39 3.06,-207.02 3.06,-361.87l0 -283.63 127.14 0 471.89 666.28 0 -134.48c0,-122.25 -1.02,-222.5 -3.06,-300.74 -2.04,-78.24 -5.91,-155.26 -11.61,-231.06l95.36 0z"/>
   <path id="8" class="fil1" d="M22970.65 6313.49l0 897.33 -127.14 0 0 -704.17 -276.29 704.17 -121.03 0 -288.52 -693.17 0 141.81c0,127.95 1.02,232.48 3.06,313.57 2.04,81.09 5.91,160.36 11.61,237.78l-95.35 0c5.7,-81.5 9.58,-165.45 11.61,-251.84 2.04,-86.39 3.06,-207.02 3.06,-361.87l0 -283.63 119.81 0 327.64 787.3 311.74 -787.3 119.81 0z"/>
   <path id="9" class="fil1" d="M23849.17 6313.49l635.71 0 24.45 86.8c-78.24,-8.15 -160.15,-13.65 -245.73,-16.5 -85.58,-2.85 -181.34,-4.28 -287.29,-4.28l0 349.64c74.17,0 133.66,-1.02 178.49,-3.06 44.83,-2.04 93.32,-5.91 145.48,-11.61l0 95.35c-52.16,-5.7 -100.65,-9.58 -145.48,-11.61 -44.83,-2.04 -104.32,-3.06 -178.49,-3.06l0 349.64c105.95,0 201.71,-1.42 287.29,-4.28 85.58,-2.85 167.49,-8.35 245.73,-16.5l-24.45 86.8 -635.71 0 0 -897.33z"/>
   <path id="10" class="fil1" d="M26214.26 6313.49l0 897.33 -127.14 0 0 -704.17 -276.29 704.17 -121.03 0 -288.52 -693.17 0 141.81c0,127.95 1.02,232.48 3.06,313.57 2.04,81.09 5.91,160.36 11.61,237.78l-95.35 0c5.7,-81.5 9.58,-165.45 11.61,-251.84 2.04,-86.39 3.06,-207.02 3.06,-361.87l0 -283.63 119.81 0 327.64 787.3 311.74 -787.3 119.81 0z"/>
   <path id="11" class="fil1" d="M27455.87 7229.16c-79.87,0 -152.21,-20.17 -217,-60.52 -64.79,-40.34 -115.53,-96.17 -152.21,-167.49 -36.67,-71.32 -55.01,-150.98 -55.01,-239 0,-87.21 18.54,-166.47 55.63,-237.78 37.08,-71.31 87.82,-127.14 152.2,-167.49 64.39,-40.34 136.52,-60.52 216.39,-60.52 79.87,0 152,20.17 216.38,60.52 64.38,40.34 115.12,96.17 152.21,167.49 37.08,71.31 55.62,150.58 55.62,237.78 0,88.02 -18.34,167.69 -55.01,239 -36.68,71.31 -87.41,127.14 -152.21,167.49 -64.79,40.34 -137.13,60.52 -216.99,60.52zm0 -63.57c61.13,0 114.1,-16.1 158.93,-48.29 44.83,-32.19 79.26,-78.65 103.3,-139.37 24.04,-60.72 36.06,-132.65 36.06,-215.77 0,-82.32 -12.02,-153.83 -36.06,-214.55 -24.04,-60.72 -58.48,-107.17 -103.3,-139.37 -44.83,-32.19 -97.8,-48.29 -158.93,-48.29 -61.13,0 -114.1,16.1 -158.93,48.29 -44.83,32.19 -79.26,78.65 -103.31,139.37 -24.04,60.72 -36.06,132.24 -36.06,214.55 0,83.13 12.02,155.05 36.06,215.77 24.04,60.72 58.48,107.17 103.31,139.37 44.83,32.19 97.8,48.29 158.93,48.29z"/>
   <path id="12" class="fil1" d="M28697.47 6313.49l353.31 0c61.94,0 116.34,11.21 163.21,33.62 46.86,22.41 83.33,53.79 109.41,94.13 26.08,40.35 39.12,87.01 39.12,139.98 0,62.75 -18.13,116.55 -54.4,161.37 -36.27,44.83 -86.19,75.8 -149.76,92.91l222.5 375.31 -149.15 0 -213.94 -361.87 -193.16 0 0 361.87 -127.14 0 0 -897.33zm350.86 469.45c61.94,0 108.8,-16.91 140.59,-50.74 31.78,-33.82 47.68,-84.15 47.68,-150.98 0,-66.83 -15.89,-117.16 -47.68,-150.98 -31.79,-33.82 -78.65,-50.73 -140.59,-50.73l-223.72 0 0 403.43 223.72 0z"/>
   <path id="13" class="fil1" d="M30437.86 6866.07l-344.75 -552.58 147.93 0 286.07 457.23c84.76,-133.67 147.93,-234.32 189.49,-301.97 41.57,-67.64 70.5,-119.4 86.8,-155.26l113.69 0c-30.16,35.05 -71.92,92.91 -125.31,173.6 -53.39,80.69 -128.98,198.86 -226.78,354.53l0 369.2 -127.14 0 0 -344.75z"/>
   <g>
    <polygon class="fil2 str0" points="2199.05,6359.22 1539.48,6359.22 1539.48,1779.08 2199.05,1779.08 "/>
    <path class="fil3" d="M53.52 7289.72l1929.59 0 0 1642.39 1929.54 0 0 -1066.62 1869.04 0 60.2 -0.65 0 -575.12 1929.61 0 0 -2516.05 0 -340.98 0 -3538.39c0,-243.34 -195.58,-446.46 -412.49,-461.91l-1517.12 0 -1929.24 0 -1104.65 0 -121.63 -0.89c-2.96,-207.37 -174.01,-377.97 -381.78,-377.97l-321.49 0 -557.28 0c-208.54,0 -379.8,169.72 -382.01,377.86l-568.44 0.42c-238.04,21.45 -421.85,221.47 -421.85,462.5l0 3538.39 0 340.98 0 2516.05z"/>
    <path class="fil4" d="M107.05 7236.19l1929.59 0 0 1642.4 1822.5 0 0 -1066.62c639.14,0 1291.87,-13.23 1929.24,0.14l0 -575.91 1929.62 0 0 -6341.9c0,-106 -41.9,-203.4 -107.28,-276.62 -66.71,-74.69 -157.55,-124.2 -252.77,-131.76 -1574,0 -3150.53,9.76 -4724.11,-1.47l-0.77 -52.31c-1.26,-89.19 -38.96,-170.7 -98.71,-229.87 -59.31,-58.68 -140.59,-95.21 -229.75,-95.21l-878.77 0c-89.68,0 -171.33,36.41 -230.67,95.12 -59.66,59.19 -97.08,140.47 -98.04,229.63l-0.56 52.87 -618.77 0.44c-104.31,9.95 -196.87,58.96 -263.46,131.95 -66.76,73.2 -107.3,170.67 -107.3,277.23l0 6341.9zm1822.54 107.05l-1929.59 0 0 -6448.94c0,-134.07 51.12,-256.85 135.31,-349.17 84.38,-92.5 202.3,-154.45 335.47,-166.43l523.51 -0.59c13,-97.89 58.72,-185.71 125.62,-251.83 78.99,-77.91 187.23,-126.28 305.92,-126.28l878.77 0c118.27,0 226.16,48.55 305,126.58 66.99,66.34 112.88,154.27 126.16,251.95l72.24 0.54c1464.09,-0.28 3120.68,-80.15 4554.77,0 124.34,8.85 242.03,71.94 327.39,167.5 82.21,92.06 134.87,214.49 134.87,347.72l0 6448.94 -1929.62 0 0 574.35c-642.48,6.77 -1286.52,1.42 -1929.24,1.42l0 1066.62 -2036.59 0 0 -1642.4z"/>
    <g>
     <path class="fil5" d="M2973.32 4353.95l0 1964.09 1119.54 0c198.9,0 384.67,-16.29 557.21,-48.8 172.1,-32.45 331.66,-81.16 478.48,-146.05 294.2,-130.06 538.7,-300.34 733.37,-510.69 194.79,-210.52 341.6,-449.96 440.34,-718.23 49.42,-134.31 86.2,-270.27 110.29,-407.76 24.16,-137.83 35.64,-276.9 34.45,-417.02 -2.4,-281.41 -51.96,-557.87 -148.59,-829.19 -48.11,-135.06 -108.82,-262.66 -182.07,-382.59 -73.29,-120.07 -159.33,-232.79 -257.95,-338.08 -98.66,-105.29 -209.3,-200.25 -331.9,-284.7 -122.84,-84.66 -257.95,-159.05 -405.17,-223.05 -146.63,-63.75 -305.61,-111.65 -476.8,-143.62 -171.26,-31.98 -355.19,-47.99 -551.68,-47.99l-1119.54 0 0 1851.14 1770.63 0 0 682.56 -1770.63 0zm-82.35 2005.27l0 -2087.62 1770.63 0 0 -517.86 -1770.63 0 0 -2015.84 1201.89 0c200.79,0 389.69,16.55 566.64,49.58 177.24,33.07 342.12,82.81 494.66,149.13 152,66.08 291.7,143.04 418.99,230.76 127.61,87.93 242.66,186.62 345.11,295.95 102.45,109.38 191.91,226.63 268.22,351.62 76.35,125.02 139.53,257.71 189.48,398 99.55,279.51 150.6,564.84 153.07,855.89 1.26,146 -10.57,289.98 -35.43,431.82 -24.91,142.25 -63,282.93 -114.12,421.9 -102.4,278.19 -254.89,526.75 -457.38,745.58 -202.65,218.99 -456.17,395.8 -760.4,530.3 -152.37,67.34 -317.93,117.9 -496.5,151.56 -178.17,33.56 -368.96,50.39 -572.34,50.39l-1201.89 0 0 -41.17z"/>
     <g>
      <polygon class="fil6" points="2199.05,6359.22 2199.05,1779.08 1539.48,1779.08 1539.48,6359.22 "/>
      <path class="fil7" d="M2157.87 6318.04l0 -4497.79 -577.22 0 0 4497.79 577.22 0zm82.35 -4538.96l0 4621.31 -741.92 0 0 -4662.49 741.92 0 0 41.18z"/>
      <path class="fil6" d="M2932.14 4312.78l0 2046.44 980.52 0 180.2 0c402.27,0 753.03,-66.15 1052.27,-198.4 299.24,-132.3 548.2,-305.8 746.89,-520.5 198.66,-214.7 348.28,-458.66 448.86,-731.9 100.53,-273.26 149.62,-553.01 147.14,-839.25 -2.45,-286.26 -52.73,-567.11 -150.83,-842.54 -98.11,-275.41 -247.75,-520.45 -448.86,-735.14 -201.14,-214.7 -451.31,-387.1 -750.58,-517.23 -299.24,-130.11 -647.52,-195.16 -1044.89,-195.16l-1160.72 0 0 1933.49 1770.63 0 0 600.21 -1770.63 0z"/>
      <path class="fil8" d="M6085.23 1758.07l102.19 21.11c33.21,7.74 65.77,15.77 97.69,25.56 66.96,20.55 122.46,50.15 160.31,88.17 63.83,64.14 91.9,162.3 113.14,257.1l21.52 102.81c20.71,-110.21 43.16,-244.6 112.19,-335.1 19.88,-26.06 18.17,-20.74 37.26,-39.26 4.9,-4.75 4.08,-3.5 8.73,-6.9l27.17 -19.65c6.86,-4 12.83,-7.52 20.15,-11.21 70.21,-35.41 159.24,-58.2 237.28,-72.26 14.35,-2.59 38.22,-6.19 51.44,-10.14 -119.18,-28.57 -269.6,-43.88 -359.88,-134.39 -64,-64.16 -92.89,-163.05 -113.62,-256.79 -7.38,-33.36 -12.56,-71.23 -21.12,-104.11 -3.52,32.94 -37.22,170.61 -46.15,198.83 -19.77,62.52 -34.97,96.06 -72.85,144.36 -6.48,8.26 -22.3,25.46 -29.97,30.86 -22.78,16.05 -20.31,18.98 -56.03,37.82 -59.06,31.17 -120.48,46.78 -184.95,61.66 -34.23,7.9 -70.59,12.96 -104.51,21.55z"/>
     </g>
    </g>
   </g>
  </g>
 </g>
</svg>
